<?xml version="1.0" encoding="UTF-8" standalone="no"?>
<svg
   height="64"
   version="1"
   viewBox="0 0 64 64"
   width="64"
   id="svg97"
   sodipodi:docname="64.svg"
   inkscape:version="1.4.2 (f4327f4, 2025-05-13)"
   xml:space="preserve"
   xmlns:inkscape="http://www.inkscape.org/namespaces/inkscape"
   xmlns:sodipodi="http://sodipodi.sourceforge.net/DTD/sodipodi-0.dtd"
   xmlns:xlink="http://www.w3.org/1999/xlink"
   xmlns="http://www.w3.org/2000/svg"
   xmlns:svg="http://www.w3.org/2000/svg"
   xmlns:rdf="http://www.w3.org/1999/02/22-rdf-syntax-ns#"
   xmlns:cc="http://creativecommons.org/ns#"
   xmlns:dc="http://purl.org/dc/elements/1.1/"
   xmlns:osb="http://www.openswatchbook.org/uri/2009/osb"><sodipodi:namedview
     id="namedview1"
     pagecolor="#ffffff"
     bordercolor="#000000"
     borderopacity="0.25"
     inkscape:showpageshadow="2"
     inkscape:pageopacity="0.0"
     inkscape:pagecheckerboard="0"
     inkscape:deskcolor="#d1d1d1"
     inkscape:zoom="6.5241649"
     inkscape:cx="20.692303"
     inkscape:cy="33.184324"
     inkscape:current-layer="svg97"
     inkscape:window-width="1920"
     inkscape:window-height="1129"
     inkscape:window-x="1912"
     inkscape:window-y="-8"
     inkscape:window-maximized="1" /><metadata
     id="metadata101"><rdf:RDF><cc:Work
         rdf:about=""><dc:format>image/svg+xml</dc:format><dc:type
           rdf:resource="http://purl.org/dc/dcmitype/StillImage" /><dc:title>
        elementary Icon Template
    </dc:title></cc:Work></rdf:RDF></metadata><title
     id="title2">
        elementary Icon Template
    </title><defs
     id="defs86"><linearGradient
       id="linearGradient121303"><stop
         id="stop121295"
         style="stop-color:#ffffff;stop-opacity:1"
         offset="0" /><stop
         id="stop121297"
         style="stop-color:#ffffff;stop-opacity:0.23529412"
         offset="0.11419468" /><stop
         id="stop121299"
         style="stop-color:#ffffff;stop-opacity:0.15686275"
         offset="0.93896598" /><stop
         id="stop121301"
         style="stop-color:#ffffff;stop-opacity:0.39215687"
         offset="1" /></linearGradient><linearGradient
       id="g"><stop
         offset="0"
         id="stop13" /><stop
         offset="1"
         stop-opacity="0"
         id="stop15" /></linearGradient><linearGradient
       id="c"><stop
         offset="0"
         stop-color="#fff"
         id="stop36" /><stop
         offset="0.28147671"
         stop-color="#fff"
         id="stop38" /><stop
         offset="0.33052009"
         stop-color="#fff"
         stop-opacity=".643"
         id="stop40" /><stop
         offset="1"
         stop-color="#fff"
         stop-opacity=".391"
         id="stop42" /></linearGradient><linearGradient
       id="h"><stop
         offset="0"
         stop-opacity="0"
         id="stop54" /><stop
         offset=".5"
         id="stop56" /><stop
         offset="1"
         stop-opacity="0"
         id="stop58" /></linearGradient><linearGradient
       id="d"><stop
         offset="0"
         stop-color="#fff"
         stop-opacity="0"
         id="stop65" /><stop
         offset="1"
         stop-color="#fff"
         stop-opacity="0"
         id="stop67" /></linearGradient><linearGradient
       id="linearGradient3924-2-2-5-8"><stop
         id="stop3926-9-4-9-6"
         style="stop-color:#ffffff;stop-opacity:1"
         offset="0" /><stop
         id="stop3928-9-8-6-5"
         style="stop-color:#ffffff;stop-opacity:0.23529412"
         offset="0.09302325" /><stop
         id="stop3930-3-5-1-7"
         style="stop-color:#ffffff;stop-opacity:0.15686275"
         offset="0.9069767" /><stop
         id="stop3932-8-0-4-8"
         style="stop-color:#ffffff;stop-opacity:0.39215687"
         offset="1" /></linearGradient><radialGradient
       cx="5"
       cy="41.5"
       fx="5"
       fy="41.5"
       gradientTransform="matrix(1.0028871,0,0,1.6,-12.51498,-120.4)"
       gradientUnits="userSpaceOnUse"
       xlink:href="#g"
       id="i-6-9-7-8-9"
       r="5" /><radialGradient
       cx="5"
       cy="41.5"
       fx="5"
       fy="41.5"
       gradientTransform="matrix(1.0028871,0,0,1.6,51.48689,-120.4)"
       gradientUnits="userSpaceOnUse"
       xlink:href="#g"
       id="k-0-7-3-9-3"
       r="5" /><linearGradient
       xlink:href="#h"
       id="linearGradient121754"
       gradientUnits="userSpaceOnUse"
       gradientTransform="matrix(2.1304332,0,0,1.45455,-18.06499,-4.91)"
       x1="17.554"
       y1="46"
       x2="17.554"
       y2="35" /><linearGradient
       xlink:href="#linearGradient855"
       id="linearGradient121756"
       gradientUnits="userSpaceOnUse"
       gradientTransform="matrix(1.72,0,0,1.8485205,55.67244,-21.474271)"
       x1="-5.8870335"
       y1="19.72085"
       x2="-5.8870335"
       y2="43.375748" /><linearGradient
       xlink:href="#d"
       id="linearGradient121758"
       gradientUnits="userSpaceOnUse"
       gradientTransform="matrix(1.70964,0,0,1.56625,-8.21251,-6.915)"
       x1="23.452"
       y1="30.555"
       x2="43.007"
       y2="45.934" /><linearGradient
       xlink:href="#linearGradient3924-2-2-5-8"
       id="linearGradient121760"
       gradientUnits="userSpaceOnUse"
       gradientTransform="matrix(1.4324324,0,0,1.1891893,-2.37838,7.9594574)"
       x1="23.99999"
       y1="5.9204559"
       x2="23.99999"
       y2="42.079544" /><linearGradient
       xlink:href="#c"
       id="linearGradient121762"
       gradientUnits="userSpaceOnUse"
       gradientTransform="matrix(1.5,0,0,1.35714,-3.963,-9.367)"
       x1="24.537"
       y1="21.915"
       x2="24.537"
       y2="7.913" /><linearGradient
       xlink:href="#linearGradient121303"
       id="linearGradient121764"
       gradientUnits="userSpaceOnUse"
       gradientTransform="matrix(1.4324324,0,0,1.2162165,-2.37838,7.7795488)"
       x1="25.086039"
       y1="-1.3623691"
       x2="25.086039"
       y2="18.299334" /><linearGradient
       xlink:href="#linearGradient855"
       id="linearGradient1703"
       gradientUnits="userSpaceOnUse"
       gradientTransform="matrix(1.72,0,0,1.8485205,55.67244,-21.474271)"
       x1="-5.8870335"
       y1="11.482978"
       x2="-5.8870335"
       y2="22.148865" /><linearGradient
       id="linearGradient855"><stop
         id="stop851"
         offset="0"
         style="stop-color:#fafafa;stop-opacity:1" /><stop
         id="stop853"
         offset="1"
         style="stop-color:#d4d4d4;stop-opacity:1" /></linearGradient><defs
       id="defs75"><linearGradient
         id="linearGradient4"><stop
           id="stop1"
           style="stop-color:#ffffff;stop-opacity:1"
           offset="0" /><stop
           id="stop2"
           style="stop-color:#ffffff;stop-opacity:0.23529412"
           offset="0.11419468" /><stop
           id="stop3"
           style="stop-color:#ffffff;stop-opacity:0.15686275"
           offset="0.93896598" /><stop
           id="stop4"
           style="stop-color:#ffffff;stop-opacity:0.39215687"
           offset="1" /></linearGradient><linearGradient
         id="linearGradient6"><stop
           offset="0"
           id="stop5" /><stop
           offset="1"
           stop-opacity="0"
           id="stop6" /></linearGradient><linearGradient
         id="linearGradient10"><stop
           offset="0"
           stop-color="#fff"
           id="stop7" /><stop
           offset="0.28147671"
           stop-color="#fff"
           id="stop8" /><stop
           offset="0.33052009"
           stop-color="#fff"
           stop-opacity=".643"
           id="stop9" /><stop
           offset="1"
           stop-color="#fff"
           stop-opacity=".391"
           id="stop10" /></linearGradient><linearGradient
         id="linearGradient14"><stop
           offset="0"
           stop-opacity="0"
           id="stop11" /><stop
           offset=".5"
           id="stop12" /><stop
           offset="1"
           stop-opacity="0"
           id="stop14" /></linearGradient><linearGradient
         id="linearGradient17"><stop
           offset="0"
           stop-color="#fff"
           stop-opacity="0"
           id="stop16" /><stop
           offset="1"
           stop-color="#fff"
           stop-opacity="0"
           id="stop17" /></linearGradient><linearGradient
         id="linearGradient21"><stop
           id="stop18"
           style="stop-color:#ffffff;stop-opacity:1"
           offset="0" /><stop
           id="stop19"
           style="stop-color:#ffffff;stop-opacity:0.23529412"
           offset="0.09302325" /><stop
           id="stop20"
           style="stop-color:#ffffff;stop-opacity:0.15686275"
           offset="0.9069767" /><stop
           id="stop21"
           style="stop-color:#ffffff;stop-opacity:0.39215687"
           offset="1" /></linearGradient><radialGradient
         cx="5"
         cy="41.5"
         fx="5"
         fy="41.5"
         gradientTransform="matrix(1.0028871,0,0,1.6,-12.51498,-120.4)"
         gradientUnits="userSpaceOnUse"
         xlink:href="#g"
         id="radialGradient21"
         r="5" /><radialGradient
         cx="5"
         cy="41.5"
         fx="5"
         fy="41.5"
         gradientTransform="matrix(1.0028871,0,0,1.6,51.48689,-120.4)"
         gradientUnits="userSpaceOnUse"
         xlink:href="#g"
         id="radialGradient22"
         r="5" /><linearGradient
         xlink:href="#h"
         id="linearGradient22"
         gradientUnits="userSpaceOnUse"
         gradientTransform="matrix(2.1304332,0,0,1.45455,-18.06499,-4.91)"
         x1="17.554"
         y1="46"
         x2="17.554"
         y2="35" /><linearGradient
         xlink:href="#linearGradient855"
         id="linearGradient23"
         gradientUnits="userSpaceOnUse"
         gradientTransform="matrix(1.72,0,0,1.8485205,55.67244,-21.474271)"
         x1="-5.8870335"
         y1="19.72085"
         x2="-5.8870335"
         y2="43.375748" /><linearGradient
         xlink:href="#d"
         id="linearGradient24"
         gradientUnits="userSpaceOnUse"
         gradientTransform="matrix(1.70964,0,0,1.56625,-8.21251,-6.915)"
         x1="23.452"
         y1="30.555"
         x2="43.007"
         y2="45.934" /><linearGradient
         xlink:href="#linearGradient3924-2-2-5-8"
         id="linearGradient25"
         gradientUnits="userSpaceOnUse"
         gradientTransform="matrix(1.4324324,0,0,1.1891893,-2.37838,7.9594574)"
         x1="23.99999"
         y1="5.9204559"
         x2="23.99999"
         y2="42.079544" /><linearGradient
         xlink:href="#c"
         id="linearGradient26"
         gradientUnits="userSpaceOnUse"
         gradientTransform="matrix(1.5,0,0,1.35714,-3.963,-9.367)"
         x1="24.537"
         y1="21.915"
         x2="24.537"
         y2="7.913" /><linearGradient
         xlink:href="#linearGradient121303"
         id="linearGradient27"
         gradientUnits="userSpaceOnUse"
         gradientTransform="matrix(1.4324324,0,0,1.2162165,-2.37838,7.7795488)"
         x1="25.086039"
         y1="-1.3623691"
         x2="25.086039"
         y2="18.299334" /><linearGradient
         xlink:href="#linearGradient855"
         id="linearGradient28"
         gradientUnits="userSpaceOnUse"
         gradientTransform="matrix(1.72,0,0,1.8485205,55.67244,-21.474271)"
         x1="-5.8870335"
         y1="11.482978"
         x2="-5.8870335"
         y2="22.148865" /><linearGradient
         id="linearGradient29"><stop
           id="stop28"
           offset="0"
           style="stop-color:#fafafa;stop-opacity:1" /><stop
           id="stop29"
           offset="1"
           style="stop-color:#d4d4d4;stop-opacity:1" /></linearGradient></defs><linearGradient
       id="linearGradient33"><stop
         id="stop30"
         style="stop-color:#ffffff;stop-opacity:1"
         offset="0" /><stop
         id="stop31"
         style="stop-color:#ffffff;stop-opacity:0.23529412"
         offset="0.11419468" /><stop
         id="stop32"
         style="stop-color:#ffffff;stop-opacity:0.15686275"
         offset="0.93896598" /><stop
         id="stop33"
         style="stop-color:#ffffff;stop-opacity:0.39215687"
         offset="1" /></linearGradient><stop
       id="stop34"
       style="stop-color:#ffffff;stop-opacity:1"
       offset="0" /><stop
       id="stop35"
       style="stop-color:#ffffff;stop-opacity:0.23529412"
       offset="0.11419468" /><stop
       id="stop37"
       style="stop-color:#ffffff;stop-opacity:0.15686275"
       offset="0.93896598" /><stop
       id="stop39"
       style="stop-color:#ffffff;stop-opacity:0.39215687"
       offset="1" /><linearGradient
       id="linearGradient43"><stop
         offset="0"
         id="stop41" /><stop
         offset="1"
         stop-opacity="0"
         id="stop43" /></linearGradient><stop
       offset="0"
       id="stop44" /><stop
       offset="1"
       stop-opacity="0"
       id="stop45" /><linearGradient
       id="linearGradient49"><stop
         offset="0"
         stop-color="#fff"
         id="stop46" /><stop
         offset="0.28147671"
         stop-color="#fff"
         id="stop47" /><stop
         offset="0.33052009"
         stop-color="#fff"
         stop-opacity=".643"
         id="stop48" /><stop
         offset="1"
         stop-color="#fff"
         stop-opacity=".391"
         id="stop49" /></linearGradient><stop
       offset="0"
       stop-color="#fff"
       id="stop50" /><stop
       offset="0.28147671"
       stop-color="#fff"
       id="stop51" /><stop
       offset="0.33052009"
       stop-color="#fff"
       stop-opacity=".643"
       id="stop52" /><stop
       offset="1"
       stop-color="#fff"
       stop-opacity=".391"
       id="stop53" /><linearGradient
       id="linearGradient59"><stop
         offset="0"
         stop-opacity="0"
         id="stop55" /><stop
         offset=".5"
         id="stop57" /><stop
         offset="1"
         stop-opacity="0"
         id="stop59" /></linearGradient><stop
       offset="0"
       stop-opacity="0"
       id="stop60" /><stop
       offset=".5"
       id="stop61" /><stop
       offset="1"
       stop-opacity="0"
       id="stop62" /><linearGradient
       id="linearGradient64"><stop
         offset="0"
         stop-color="#fff"
         stop-opacity="0"
         id="stop63" /><stop
         offset="1"
         stop-color="#fff"
         stop-opacity="0"
         id="stop64" /></linearGradient><stop
       offset="0"
       stop-color="#fff"
       stop-opacity="0"
       id="stop66" /><stop
       offset="1"
       stop-color="#fff"
       stop-opacity="0"
       id="stop68" /><linearGradient
       id="linearGradient72"><stop
         id="stop69"
         style="stop-color:#ffffff;stop-opacity:1"
         offset="0" /><stop
         id="stop70"
         style="stop-color:#ffffff;stop-opacity:0.23529412"
         offset="0.09302325" /><stop
         id="stop71"
         style="stop-color:#ffffff;stop-opacity:0.15686275"
         offset="0.9069767" /><stop
         id="stop72"
         style="stop-color:#ffffff;stop-opacity:0.39215687"
         offset="1" /></linearGradient><stop
       id="stop73"
       style="stop-color:#ffffff;stop-opacity:1"
       offset="0" /><stop
       id="stop74"
       style="stop-color:#ffffff;stop-opacity:0.23529412"
       offset="0.09302325" /><stop
       id="stop75"
       style="stop-color:#ffffff;stop-opacity:0.15686275"
       offset="0.9069767" /><stop
       id="stop76"
       style="stop-color:#ffffff;stop-opacity:0.39215687"
       offset="1" /><radialGradient
       cx="5"
       cy="41.5"
       fx="5"
       fy="41.5"
       gradientTransform="matrix(1.0028871,0,0,1.6,-12.51498,-120.4)"
       gradientUnits="userSpaceOnUse"
       xlink:href="#g"
       id="radialGradient76"
       r="5" /><radialGradient
       cx="5"
       cy="41.5"
       fx="5"
       fy="41.5"
       gradientTransform="matrix(1.0028871,0,0,1.6,51.48689,-120.4)"
       gradientUnits="userSpaceOnUse"
       xlink:href="#g"
       id="radialGradient77"
       r="5" /><linearGradient
       xlink:href="#h"
       id="linearGradient77"
       gradientUnits="userSpaceOnUse"
       gradientTransform="matrix(2.1304332,0,0,1.45455,-18.06499,-4.91)"
       x1="17.554"
       y1="46"
       x2="17.554"
       y2="35" /><linearGradient
       xlink:href="#linearGradient855"
       id="linearGradient78"
       gradientUnits="userSpaceOnUse"
       gradientTransform="matrix(1.72,0,0,1.8485205,55.67244,-21.474271)"
       x1="-5.8870335"
       y1="19.72085"
       x2="-5.8870335"
       y2="43.375748" /><linearGradient
       xlink:href="#d"
       id="linearGradient79"
       gradientUnits="userSpaceOnUse"
       gradientTransform="matrix(1.70964,0,0,1.56625,-8.21251,-6.915)"
       x1="23.452"
       y1="30.555"
       x2="43.007"
       y2="45.934" /><linearGradient
       xlink:href="#linearGradient3924-2-2-5-8"
       id="linearGradient80"
       gradientUnits="userSpaceOnUse"
       gradientTransform="matrix(1.4324324,0,0,1.1891893,-2.37838,7.9594574)"
       x1="23.99999"
       y1="5.9204559"
       x2="23.99999"
       y2="42.079544" /><linearGradient
       xlink:href="#c"
       id="linearGradient81"
       gradientUnits="userSpaceOnUse"
       gradientTransform="matrix(1.5,0,0,1.35714,-3.963,-9.367)"
       x1="24.537"
       y1="21.915"
       x2="24.537"
       y2="7.913" /><linearGradient
       xlink:href="#linearGradient121303"
       id="linearGradient82"
       gradientUnits="userSpaceOnUse"
       gradientTransform="matrix(1.4324324,0,0,1.2162165,-2.37838,7.7795488)"
       x1="25.086039"
       y1="-1.3623691"
       x2="25.086039"
       y2="18.299334" /><linearGradient
       xlink:href="#linearGradient855"
       id="linearGradient83"
       gradientUnits="userSpaceOnUse"
       gradientTransform="matrix(1.72,0,0,1.8485205,55.67244,-21.474271)"
       x1="-5.8870335"
       y1="11.482978"
       x2="-5.8870335"
       y2="22.148865" /><linearGradient
       id="linearGradient84"><stop
         id="stop83"
         offset="0"
         style="stop-color:#fafafa;stop-opacity:1" /><stop
         id="stop84"
         offset="1"
         style="stop-color:#d4d4d4;stop-opacity:1" /></linearGradient><stop
       id="stop85"
       offset="0"
       style="stop-color:#fafafa;stop-opacity:1" /><stop
       id="stop86"
       offset="1"
       style="stop-color:#d4d4d4;stop-opacity:1" /><linearGradient
       id="linearGradient78-9"><stop
         style="stop-color:#9bdb4d;stop-opacity:1"
         offset="0"
         id="stop74-4" /><stop
         style="stop-color:#68b723;stop-opacity:1"
         offset="1"
         id="stop76-8" /></linearGradient><linearGradient
       osb:paint="solid"
       id="linearGradient4526"><stop
         id="stop4528"
         offset="0"
         style="stop-color:#ffffff;stop-opacity:1;" /></linearGradient><linearGradient
       y2="9.2499981"
       x2="1.8003722"
       y1="9.2499981"
       x1="24.200359"
       gradientTransform="matrix(0,-1.4285723,-2.0000002,0,45.499998,42.571962)"
       gradientUnits="userSpaceOnUse"
       id="linearGradient942"
       xlink:href="#linearGradient78-9" /><linearGradient
       id="linearGradient965"><stop
         id="stop957"
         style="stop-color:#ffffff;stop-opacity:1"
         offset="0" /><stop
         id="stop959"
         style="stop-color:#ffffff;stop-opacity:0.23529412"
         offset="0" /><stop
         id="stop961"
         style="stop-color:#ffffff;stop-opacity:0.15686275"
         offset="1" /><stop
         id="stop963"
         style="stop-color:#ffffff;stop-opacity:0.39215687"
         offset="1" /></linearGradient><linearGradient
       gradientTransform="matrix(1.0237894,0,0,0.97676863,1.0666482,1.3973919)"
       gradientUnits="userSpaceOnUse"
       xlink:href="#linearGradient4333"
       id="linearGradient3030-1"
       y2="26.211538"
       x2="24.138529"
       y1="20.068834"
       x1="24.138529" /><linearGradient
       id="linearGradient4333"><stop
         id="stop4335"
         style="stop-color:#ffffff;stop-opacity:1"
         offset="0" /><stop
         id="stop4337"
         style="stop-color:#ffffff;stop-opacity:0.23529412"
         offset="0.00000005" /><stop
         id="stop4339"
         style="stop-color:#ffffff;stop-opacity:0.15686275"
         offset="1" /><stop
         id="stop4341"
         style="stop-color:#ffffff;stop-opacity:0.39215687"
         offset="1" /></linearGradient><linearGradient
       gradientTransform="matrix(0.9862845,0,0,1.0153465,1.9379648,0.49145742)"
       gradientUnits="userSpaceOnUse"
       xlink:href="#linearGradient965"
       id="linearGradient3030"
       y2="36.94162"
       x2="24.138529"
       y1="9.3648252"
       x1="24.138529" /><radialGradient
       gradientTransform="matrix(-0.52995454,0,0,-0.35307735,22.512547,21.835677)"
       gradientUnits="userSpaceOnUse"
       xlink:href="#g"
       id="radialGradient3862-3-0"
       fy="36.421127"
       fx="24.837126"
       r="15.644737"
       cy="36.421127"
       cx="24.837126" /><linearGradient
       id="linearGradient965-2"><stop
         id="stop957-4"
         style="stop-color:#ffffff;stop-opacity:1"
         offset="0" /><stop
         id="stop959-5"
         style="stop-color:#ffffff;stop-opacity:0.23529412"
         offset="0.00000001" /><stop
         id="stop961-5"
         style="stop-color:#ffffff;stop-opacity:0.15686275"
         offset="1" /><stop
         id="stop963-1"
         style="stop-color:#ffffff;stop-opacity:0.39215687"
         offset="1" /></linearGradient><radialGradient
       gradientTransform="matrix(-0.52995454,0,0,-0.35307735,22.512547,21.835677)"
       gradientUnits="userSpaceOnUse"
       xlink:href="#g"
       id="radialGradient3862-3"
       fy="36.421127"
       fx="24.837126"
       r="15.644737"
       cy="36.421127"
       cx="24.837126" /><linearGradient
       gradientTransform="matrix(0.74136466,0,0,0.69769183,-0.60690991,-0.14471803)"
       gradientUnits="userSpaceOnUse"
       xlink:href="#linearGradient965"
       id="linearGradient3030-1-2"
       y2="26.006781"
       x2="24.138529"
       y1="20.27359"
       x1="24.138529" /><linearGradient
       gradientTransform="matrix(0.70448888,0,0,0.73525103,0.24140436,-1.023428)"
       gradientUnits="userSpaceOnUse"
       xlink:href="#linearGradient965-2"
       id="linearGradient3030-3"
       y2="36.754017"
       x2="24.138529"
       y1="9.5524216"
       x1="24.138529" /><linearGradient
       y2="6.0029268"
       x2="3.4346464"
       y1="6.0029268"
       x1="20.391411"
       gradientTransform="matrix(0,-1.3739306,-1.3739306,0,31.117259,32.487664)"
       gradientUnits="userSpaceOnUse"
       id="linearGradient72-3"
       xlink:href="#linearGradient78-9" /></defs><rect
     fill="url(#i)"
     height="16"
     opacity="0.4"
     transform="scale(-1)"
     width="5"
     x="-7.5"
     y="-62"
     id="rect77-9-90-2-7-8"
     style="fill:url(#i-6-9-7-8-9);stroke-width:0.999999" /><rect
     fill="url(#j)"
     height="16"
     opacity="0.4"
     width="49"
     x="7.5"
     y="46"
     id="rect79-7-2-0-1-4"
     style="fill:url(#linearGradient121754);stroke-width:0.999997" /><rect
     fill="url(#k)"
     height="16"
     opacity="0.4"
     transform="scale(1,-1)"
     width="5"
     x="56.5"
     y="-62"
     id="rect81-3-8-6-7-8"
     style="fill:url(#k-0-7-3-9-3);stroke-width:0.999999" /><path
     id="rect5505-21-1-5-0-6-5-1-2-5-10"
     style="color:#000000;font-variation-settings:normal;display:inline;overflow:visible;visibility:visible;opacity:1;vector-effect:none;fill:url(#linearGradient1703);fill-opacity:1.0;fill-rule:nonzero;stroke:none;stroke-width:0.999996;stroke-linecap:butt;stroke-linejoin:miter;stroke-miterlimit:4;stroke-dasharray:none;stroke-dashoffset:0;stroke-opacity:0.3;-inkscape-stroke:none;marker:none;enable-background:accumulate;stop-color:#000000;stop-opacity:1"
     d="m 14.47968,4.5 c -3.324,0 -4.65,1.9624907 -6,5 -1.03478,2.322119 -2.23875,4.724723 -3.19531,7 -0.50874,0.882138 -0.80469,1.904492 -0.80469,3 h 55 c 0,-1.095508 -0.29595,-2.117862 -0.80469,-3 -0.98249,-2.263754 -2.1316,-4.6909 -3.19531,-7 -1.3909,-3.0190027 -2.676,-5 -6,-5 z" /><path
     id="rect5505-21-1-5-0-6-5-1-2-3"
     style="color:#000000;font-variation-settings:normal;display:inline;overflow:visible;visibility:visible;vector-effect:none;fill:url(#linearGradient121756);fill-opacity:1.0;fill-rule:nonzero;stroke:none;stroke-width:0.999996;stroke-linecap:butt;stroke-linejoin:miter;stroke-miterlimit:4;stroke-dasharray:none;stroke-dashoffset:0;stroke-opacity:0.3;-inkscape-stroke:none;marker:none;enable-background:accumulate;stop-color:#000000"
     d="m 10.5,14 c -2.5,0 -6,2.179041 -6,7.5 v 32 c 0,0.252004 0.0205,0.498742 0.0508,0.742188 0.007,0.05646 0.0169,0.11201 0.0254,0.167968 0.0302,0.19662 0.0684,0.390381 0.11719,0.580078 0.0125,0.04895 0.0235,0.09803 0.0371,0.146485 0.13697,0.48137 0.32968,0.939257 0.57422,1.363281 7.2e-4,0.0013 0.001,0.0026 0.002,0.0039 C 6.34205,58.296265 8.27307,59.5 10.5,59.5 h 43 c 2.22693,0 4.15795,-1.203735 5.19336,-2.996094 5.6e-4,-0.0013 0.001,-0.0026 0.002,-0.0039 0.24454,-0.424024 0.43725,-0.881911 0.57422,-1.363281 0.0136,-0.04845 0.0247,-0.09753 0.0371,-0.146485 0.0488,-0.189697 0.087,-0.383458 0.11719,-0.580078 0.008,-0.05596 0.0185,-0.111504 0.0254,-0.167968 0.0303,-0.243452 0.0507,-0.49019 0.0507,-0.742194 V 22 c 0,-3.745667 -1.5,-8 -6,-8 z" /><path
     d="m 13.14549,12.84 h 36.87 c 2.153,0 3.485,0.742 4.387,2.782 l 3.105,8.56 v 30.859 c 0,1.947 -1.092,2.928 -3.244,2.928 h -44.978 c -2.152,0 -3.03,-1.079 -3.03,-3.026 V 24.18 l 3.005,-8.743 c 0.6,-1.58 1.733,-2.598 3.885,-2.598 z"
     display="block"
     fill="none"
     opacity="0.505"
     overflow="visible"
     stroke="url(#m)"
     stroke-width="0.742"
     style="stroke:url(#linearGradient121758);marker:none"
     id="path85-1-8-5-7-0" /><rect
     style="opacity:1;fill:none;stroke:url(#linearGradient121760);stroke-width:0.999989;stroke-linecap:round;stroke-linejoin:round;stroke-miterlimit:4;stroke-dasharray:none;stroke-dashoffset:0;stroke-opacity:1"
     id="rect6741-5-0-2-3-4-2-4"
     y="14.499994"
     x="5.5"
     ry="4.9999995"
     height="44.000011"
     width="53"
     rx="5" /><path
     id="rect5505-21-1-5-0-6-5-1-2-5-1-4"
     style="color:#000000;font-variation-settings:normal;display:inline;overflow:visible;visibility:visible;vector-effect:none;fill:none;fill-opacity:1;fill-rule:nonzero;stroke:#555761;stroke-width:1;stroke-linecap:round;stroke-linejoin:round;stroke-miterlimit:4;stroke-dasharray:none;stroke-dashoffset:0;stroke-opacity:1;-inkscape-stroke:none;marker:none;enable-background:accumulate;stop-color:#000000;opacity:0.5;stop-opacity:1"
     d="m 14.47968,4.5 c -3.324,0 -4.65,1.9624907 -6,5 -1.03478,2.322119 -2.23875,4.724723 -3.19531,7 -0.50874,0.882138 -0.80469,1.904492 -0.80469,3 v 34 c 0,3.324 2.676,6 6,6 h 43 c 3.324,0 6,-2.676 6,-6 v -34 c 0,-1.095508 -0.29595,-2.117862 -0.80469,-3 -0.98249,-2.263754 -2.1316,-4.6909 -3.19531,-7 -1.3909,-3.0190027 -2.676,-5 -6,-5 z" /><path
     id="rect5505-21-1-5-0-6-5-1-2-5-1-7-7"
     style="color:#000000;font-variation-settings:normal;display:inline;overflow:visible;visibility:visible;opacity:0.5;vector-effect:none;fill:none;fill-opacity:1;fill-rule:nonzero;stroke:url(#linearGradient121764);stroke-width:0.99999;stroke-linecap:round;stroke-linejoin:round;stroke-miterlimit:4;stroke-dasharray:none;stroke-dashoffset:0;stroke-opacity:1;-inkscape-stroke:none;marker:none;enable-background:accumulate;stop-color:#000000"
     d="M 57.12815,15.499995 54.5449,9.900383 C 53.8641,8.4226288 53.22993,7.2870226 52.49219,6.5800731 51.75444,5.8731236 50.93777,5.499995 49.48047,5.499995 h -35 c -1.45922,0 -2.29097,0.372627 -3.03125,1.0761719 -0.74028,0.7035449 -1.36976,1.8309474 -2.02734,3.3105471 v 0.002 l -2.61004,5.611281" /><path
     d="m 29.537,4 h 5 L 35,14 l 0.037,6.49 c -0.59,0 -1.181,-1.046 -1.772,-1.046 -0.604,0 -1.209,1.046 -1.814,1.046 -0.486,0 -0.973,-0.916 -1.46,-0.916 -0.318,0 -0.636,0.916 -0.954,0.916 L 29,14 Z"
     fill="url(#n)"
     opacity="0.3"
     overflow="visible"
     style="fill:url(#linearGradient121762);marker:none;opacity:0.6"
     id="path87-0-9-7-6-4" /><title
     id="title86">
        elementary Icon Template
    </title><g
     transform="matrix(0.33126305,0,0,0.33120417,34.765183,39.544205)"
     id="g2230"
     style="opacity:0.15;stroke-width:2.22696"><path
       d="m -1.274407,-1.098966 c -1.494,0.02 0.281,0.768 2.232,1.069 0.541,-0.422 1.027,-0.846 1.463,-1.26 -1.213,0.297 -2.449,0.304 -3.695,0.191"
       id="path2206"
       style="fill:#d70751;stroke-width:2.22696" /><path
       d="m 6.742593,-3.097966 c 0.893,-1.229 1.541,-2.573 1.77,-3.963 -0.201,0.99 -0.736,1.845 -1.244,2.749 -2.793,1.759 -0.264,-1.044 -0.002,-2.111 -3.002,3.783 -0.414,2.268 -0.524,3.325"
       id="path2208"
       style="fill:#d70751;stroke-width:2.22696" /><path
       d="m 9.705593,-10.801966 c 0.182,-2.691 -0.529,-1.839 -0.768,-0.814 0.278,0.146 0.499,1.898 0.768,0.814"
       id="path2210"
       style="fill:#d70751;stroke-width:2.22696" /><path
       d="m -6.942407,-47.580966 c 0.798,0.142 1.724,0.252 1.591,0.443 0.876,-0.193 1.073,-0.367 -1.591,-0.443"
       id="path2212"
       style="fill:#d70751;stroke-width:2.22696" /><path
       d="m -5.350407,-47.137966 -0.561,0.117 0.523,-0.048 0.038,-0.069"
       id="path2214"
       style="fill:#d70751;stroke-width:2.22696" /><path
       d="m 19.518593,-9.781966 c 0.09,2.416 -0.705,3.59 -1.424,5.666 l -1.293,0.643 c -1.057,2.054 0.105,1.304 -0.652,2.937 -1.652,1.467 -5.006,4.589 -6.08,4.875 -0.785,-0.017 0.531,-0.926 0.703,-1.281 -2.209,1.516 -1.773,2.276 -5.152,3.199 l -0.098,-0.221 c -8.33,3.92 -19.902,-3.847 -19.75,-14.443 -0.088,0.672 -0.253,0.504 -0.437,0.774 -0.43,-5.451 2.518,-10.926 7.49,-13.165 4.863,-2.406 10.564,-1.42 14.045,1.829 -1.912,-2.506 -5.721,-5.163 -10.232,-4.917 -4.421,0.072 -8.558,2.881 -9.938,5.932 -2.264,1.425 -2.528,5.496 -3.514,6.242 -1.329,9.76 2.497,13.975 8.97,18.936 1.016,0.686 0.286,0.791 0.422,1.313 -2.15,-1.006 -4.118,-2.526 -5.738,-4.387 0.86,1.257 1.787,2.479 2.986,3.439 -2.029,-0.685 -4.738,-4.913 -5.527,-5.085 3.495,6.258 14.178,10.975 19.775,8.634 -2.59,0.096 -5.879,0.053 -8.787,-1.022 -1.225,-0.629 -2.884,-1.93 -2.587,-2.173 7.636,2.851 15.522,2.158 22.128,-3.137 1.682,-1.31 3.518,-3.537 4.049,-3.567 -0.799,1.202 0.137,0.578 -0.477,1.639 1.672,-2.701 -0.729,-1.1 1.73,-4.664 l 0.908,1.25 c -0.34,-2.244 2.785,-4.966 2.467,-8.512 0.717,-1.084 0.799,1.168 0.039,3.662 1.055,-2.767 0.279,-3.212 0.549,-5.496 0.291,0.768 0.678,1.583 0.875,2.394 -0.688,-2.675 0.703,-4.503 1.049,-6.058 -0.342,-0.15 -1.061,1.182 -1.227,-1.976 0.025,-1.372 0.383,-0.719 0.52,-1.057 -0.268,-0.155 -0.975,-1.207 -1.404,-3.224 0.309,-0.475 0.832,1.229 1.256,1.298 -0.273,-1.603 -0.742,-2.826 -0.762,-4.057 -1.24,-2.59 -0.439,0.346 -1.443,-1.112 -1.32,-4.114 1.094,-0.955 1.258,-2.823 1.998,2.895 3.137,7.385 3.662,9.244 -0.4,-2.267 -1.045,-4.464 -1.834,-6.589 0.609,0.257 -0.979,-4.663 0.791,-1.405 -1.889,-6.945 -8.078,-13.435 -13.773,-16.479 0.695,0.637 1.574,1.437 1.26,1.563 -2.834,-1.685 -2.336,-1.818 -2.742,-2.53 -2.305,-0.939 -2.459,0.077 -3.984,0.002 -4.35,-2.308 -5.188,-2.063 -9.191,-3.507 l 0.182,0.852 c -2.881,-0.96 -3.357,0.362 -6.47,0.002 -0.189,-0.147 0.998,-0.536 1.976,-0.677 -2.786,0.368 -2.656,-0.55 -5.382,0.101 0.671,-0.471 1.383,-0.784 2.099,-1.184 -2.271,0.138 -5.424,1.322 -4.451,0.244 -3.705,1.654 -10.286,3.975 -13.979,7.438 l -0.116,-0.776 c -1.692,2.031 -7.379,6.066 -7.832,8.699 l -0.453,0.105 c -0.879,1.491 -1.45,3.18 -2.148,4.713 -1.151,1.963 -1.688,0.756 -1.524,1.064 -2.265,4.592 -3.392,8.45 -4.363,11.616 0.692,1.035 0.017,6.232 0.278,10.391 -1.136,20.544 14.418,40.489 31.42,45.093 2.492,0.893 6.197,0.861 9.349,0.949 -3.718,-1.064 -4.198,-0.563 -7.822,-1.826 -2.613,-1.232 -3.185,-2.637 -5.037,-4.244 l 0.733,1.295 c -3.63,-1.285 -2.111,-1.59 -5.065,-2.525 l 0.783,-1.021 c -1.177,-0.09 -3.117,-1.982 -3.647,-3.033 l -1.288,0.051 c -1.546,-1.906 -2.371,-3.283 -2.31,-4.35 l -0.416,0.742 c -0.471,-0.809 -5.691,-7.158 -2.983,-5.68 -0.503,-0.458 -1.172,-0.747 -1.897,-2.066 l 0.551,-0.629 c -1.301,-1.677 -2.398,-3.826 -2.314,-4.542 0.695,0.938 1.177,1.114 1.655,1.275 -3.291,-8.164 -3.476,-0.449 -5.967,-8.31 l 0.526,-0.042 c -0.403,-0.611 -0.65,-1.27 -0.974,-1.919 l 0.23,-2.285 c -2.368,-2.736 -0.662,-11.645 -0.319,-16.53 0.235,-1.986 1.977,-4.101 3.3,-7.418 l -0.806,-0.138 c 1.542,-2.688 8.802,-10.799 12.166,-10.383 1.629,-2.046 -0.324,-0.008 -0.643,-0.522 3.579,-3.703 4.704,-2.616 7.119,-3.283 2.603,-1.545 -2.235,0.604 -1.001,-0.589 4.503,-1.149 3.19,-2.614 9.063,-3.197 0.62,0.352 -1.437,0.544 -1.953,1.001 3.75,-1.836 11.869,-1.417 17.145,1.018 6.117,2.861 12.994,11.314 13.266,19.267 l 0.309,0.083 c -0.156,3.162 0.484,6.819 -0.627,10.177 l 0.751,-1.591"
       id="path2216"
       style="fill:#740030;fill-opacity:1;stroke-width:2.22696" /><path
       d="m -17.585407,0.951034 -0.211,1.047 c 0.983,1.335 1.763,2.781 3.016,3.821 -0.902,-1.759 -1.571,-2.486 -2.805,-4.868"
       id="path2218"
       style="fill:#d70751;stroke-width:2.22696" /><path
       d="m -15.264407,0.861034 c -0.52,-0.576 -0.826,-1.268 -1.172,-1.956 0.33,1.211 1.006,2.252 1.633,3.312 l -0.461,-1.356"
       id="path2220"
       style="fill:#d70751;stroke-width:2.22696" /><path
       d="m 25.819593,-8.068966 -0.219,0.552 c -0.402,2.858 -1.273,5.686 -2.605,8.309 1.472,-2.767 2.421,-5.794 2.824,-8.861"
       id="path2222"
       style="fill:#d70751;stroke-width:2.22696" /><path
       d="m -6.645407,-48.297966 c 1.009,-0.369 2.482,-0.203 3.556,-0.446 -1.398,0.117 -2.789,0.187 -4.162,0.362 l 0.606,0.084"
       id="path2224"
       style="fill:#d70751;stroke-width:2.22696" /><path
       d="m -42.116407,-29.435966 c 0.233,2.154 -1.62,2.991 0.41,1.569 1.09,-2.454 -0.424,-0.677 -0.41,-1.569"
       id="path2226"
       style="fill:#d70751;stroke-width:2.22696" /><path
       d="m -44.504407,-19.461966 c 0.469,-1.437 0.553,-2.299 0.732,-3.132 -1.293,1.654 -0.596,2.007 -0.732,3.132"
       id="path2228"
       style="fill:#d70751;stroke-width:2.22696" /></g><g
     transform="matrix(0.33126305,0,0,0.33120417,34.765183,39.144205)"
     id="g3141"
     style="stroke-width:2.22696"><path
       d="m -1.274407,-1.098966 c -1.494,0.02 0.281,0.768 2.232,1.069 0.541,-0.422 1.027,-0.846 1.463,-1.26 -1.213,0.297 -2.449,0.304 -3.695,0.191"
       id="path3022"
       style="fill:#d70751;stroke-width:2.22696" /><path
       d="m 6.742593,-3.097966 c 0.893,-1.229 1.541,-2.573 1.77,-3.963 -0.201,0.99 -0.736,1.845 -1.244,2.749 -2.793,1.759 -0.264,-1.044 -0.002,-2.111 -3.002,3.783 -0.414,2.268 -0.524,3.325"
       id="path3024"
       style="fill:#d70751;stroke-width:2.22696" /><path
       d="m 9.705593,-10.801966 c 0.182,-2.691 -0.529,-1.839 -0.768,-0.814 0.278,0.146 0.499,1.898 0.768,0.814"
       id="path3026"
       style="fill:#d70751;stroke-width:2.22696" /><path
       d="m -6.942407,-47.580966 c 0.798,0.142 1.724,0.252 1.591,0.443 0.876,-0.193 1.073,-0.367 -1.591,-0.443"
       id="path3028"
       style="fill:#d70751;stroke-width:2.22696" /><path
       d="m -5.350407,-47.137966 -0.561,0.117 0.523,-0.048 0.038,-0.069"
       id="path3030"
       style="fill:#d70751;stroke-width:2.22696" /><path
       d="m 19.518593,-9.781966 c 0.09,2.416 -0.705,3.59 -1.424,5.666 l -1.293,0.643 c -1.057,2.054 0.105,1.304 -0.652,2.937 -1.652,1.467 -5.006,4.589 -6.08,4.875 -0.785,-0.017 0.531,-0.926 0.703,-1.281 -2.209,1.516 -1.773,2.276 -5.152,3.199 l -0.098,-0.221 c -8.33,3.92 -19.902,-3.847 -19.75,-14.443 -0.088,0.672 -0.253,0.504 -0.437,0.774 -0.43,-5.451 2.518,-10.926 7.49,-13.165 4.863,-2.406 10.564,-1.42 14.045,1.829 -1.912,-2.506 -5.721,-5.163 -10.232,-4.917 -4.421,0.072 -8.558,2.881 -9.938,5.932 -2.264,1.425 -2.528,5.496 -3.514,6.242 -1.329,9.76 2.497,13.975 8.97,18.936 1.016,0.686 0.286,0.791 0.422,1.313 -2.15,-1.006 -4.118,-2.526 -5.738,-4.387 0.86,1.257 1.787,2.479 2.986,3.439 -2.029,-0.685 -4.738,-4.913 -5.527,-5.085 3.495,6.258 14.178,10.975 19.775,8.634 -2.59,0.096 -5.879,0.053 -8.787,-1.022 -1.225,-0.629 -2.884,-1.93 -2.587,-2.173 7.636,2.851 15.522,2.158 22.128,-3.137 1.682,-1.31 3.518,-3.537 4.049,-3.567 -0.799,1.202 0.137,0.578 -0.477,1.639 1.672,-2.701 -0.729,-1.1 1.73,-4.664 l 0.908,1.25 c -0.34,-2.244 2.785,-4.966 2.467,-8.512 0.717,-1.084 0.799,1.168 0.039,3.662 1.055,-2.767 0.279,-3.212 0.549,-5.496 0.291,0.768 0.678,1.583 0.875,2.394 -0.688,-2.675 0.703,-4.503 1.049,-6.058 -0.342,-0.15 -1.061,1.182 -1.227,-1.976 0.025,-1.372 0.383,-0.719 0.52,-1.057 -0.268,-0.155 -0.975,-1.207 -1.404,-3.224 0.309,-0.475 0.832,1.229 1.256,1.298 -0.273,-1.603 -0.742,-2.826 -0.762,-4.057 -1.24,-2.59 -0.439,0.346 -1.443,-1.112 -1.32,-4.114 1.094,-0.955 1.258,-2.823 1.998,2.895 3.137,7.385 3.662,9.244 -0.4,-2.267 -1.045,-4.464 -1.834,-6.589 0.609,0.257 -0.979,-4.663 0.791,-1.405 -1.889,-6.945 -8.078,-13.435 -13.773,-16.479 0.695,0.637 1.574,1.437 1.26,1.563 -2.834,-1.685 -2.336,-1.818 -2.742,-2.53 -2.305,-0.939 -2.459,0.077 -3.984,0.002 -4.35,-2.308 -5.188,-2.063 -9.191,-3.507 l 0.182,0.852 c -2.881,-0.96 -3.357,0.362 -6.47,0.002 -0.189,-0.147 0.998,-0.536 1.976,-0.677 -2.786,0.368 -2.656,-0.55 -5.382,0.101 0.671,-0.471 1.383,-0.784 2.099,-1.184 -2.271,0.138 -5.424,1.322 -4.451,0.244 -3.705,1.654 -10.286,3.975 -13.979,7.438 l -0.116,-0.776 c -1.692,2.031 -7.379,6.066 -7.832,8.699 l -0.453,0.105 c -0.879,1.491 -1.45,3.18 -2.148,4.713 -1.151,1.963 -1.688,0.756 -1.524,1.064 -2.265,4.592 -3.392,8.45 -4.363,11.616 0.692,1.035 0.017,6.232 0.278,10.391 -1.136,20.544 14.418,40.489 31.42,45.093 2.492,0.893 6.197,0.861 9.349,0.949 -3.718,-1.064 -4.198,-0.563 -7.822,-1.826 -2.613,-1.232 -3.185,-2.637 -5.037,-4.244 l 0.733,1.295 c -3.63,-1.285 -2.111,-1.59 -5.065,-2.525 l 0.783,-1.021 c -1.177,-0.09 -3.117,-1.982 -3.647,-3.033 l -1.288,0.051 c -1.546,-1.906 -2.371,-3.283 -2.31,-4.35 l -0.416,0.742 c -0.471,-0.809 -5.691,-7.158 -2.983,-5.68 -0.503,-0.458 -1.172,-0.747 -1.897,-2.066 l 0.551,-0.629 c -1.301,-1.677 -2.398,-3.826 -2.314,-4.542 0.695,0.938 1.177,1.114 1.655,1.275 -3.291,-8.164 -3.476,-0.449 -5.967,-8.31 l 0.526,-0.042 c -0.403,-0.611 -0.65,-1.27 -0.974,-1.919 l 0.23,-2.285 c -2.368,-2.736 -0.662,-11.645 -0.319,-16.53 0.235,-1.986 1.977,-4.101 3.3,-7.418 l -0.806,-0.138 c 1.542,-2.688 8.802,-10.799 12.166,-10.383 1.629,-2.046 -0.324,-0.008 -0.643,-0.522 3.579,-3.703 4.704,-2.616 7.119,-3.283 2.603,-1.545 -2.235,0.604 -1.001,-0.589 4.503,-1.149 3.19,-2.614 9.063,-3.197 0.62,0.352 -1.437,0.544 -1.953,1.001 3.75,-1.836 11.869,-1.417 17.145,1.018 6.117,2.861 12.994,11.314 13.266,19.267 l 0.309,0.083 c -0.156,3.162 0.484,6.819 -0.627,10.177 l 0.751,-1.591"
       id="path3032"
       style="fill:#f04c6f;fill-opacity:1;stroke-width:2.22696" /><path
       d="m -17.585407,0.951034 -0.211,1.047 c 0.983,1.335 1.763,2.781 3.016,3.821 -0.902,-1.759 -1.571,-2.486 -2.805,-4.868"
       id="path3034"
       style="fill:#d70751;stroke-width:2.22696" /><path
       d="m -15.264407,0.861034 c -0.52,-0.576 -0.826,-1.268 -1.172,-1.956 0.33,1.211 1.006,2.252 1.633,3.312 l -0.461,-1.356"
       id="path3036"
       style="fill:#d70751;stroke-width:2.22696" /><path
       d="m 25.819593,-8.068966 -0.219,0.552 c -0.402,2.858 -1.273,5.686 -2.605,8.309 1.472,-2.767 2.421,-5.794 2.824,-8.861"
       id="path3038"
       style="fill:#d70751;stroke-width:2.22696" /><path
       d="m -6.645407,-48.297966 c 1.009,-0.369 2.482,-0.203 3.556,-0.446 -1.398,0.117 -2.789,0.187 -4.162,0.362 l 0.606,0.084"
       id="path3040"
       style="fill:#d70751;stroke-width:2.22696" /><path
       d="m -42.116407,-29.435966 c 0.233,2.154 -1.62,2.991 0.41,1.569 1.09,-2.454 -0.424,-0.677 -0.41,-1.569"
       id="path3042"
       style="fill:#d70751;stroke-width:2.22696" /><path
       d="m -44.504407,-19.461966 c 0.469,-1.437 0.553,-2.299 0.732,-3.132 -1.293,1.654 -0.596,2.007 -0.732,3.132"
       id="path3044"
       style="fill:#d70751;stroke-width:2.22696" /></g><g
     id="g86"
     transform="translate(36.000001,32.890431)"><g
       id="layer1"
       transform="matrix(-1.3449512,0,0,1.3426115,28.575293,11.641703)"
       style="stroke-width:0.744169"><path
         style="display:inline;overflow:visible;visibility:visible;opacity:0.141176;fill:url(#radialGradient3862-3);fill-opacity:1;fill-rule:evenodd;stroke:none;stroke-width:0.744169;marker:none"
         id="path3501-0"
         d="m 1.059,8.976195 a 8.2909995,5.5238047 0 1 1 16.581999,0 8.2909995,5.5238047 0 0 1 -16.581999,0 z" /></g><path
       id="rect902"
       style="font-variation-settings:normal;opacity:1;vector-effect:none;fill:url(#linearGradient72-3);fill-opacity:1;stroke:#206b00;stroke-width:0.999999;stroke-linecap:round;stroke-linejoin:round;stroke-miterlimit:4;stroke-dasharray:none;stroke-dashoffset:0;stroke-opacity:0.5;stop-color:#000000;stop-opacity:1"
       d="M 13.25,4.5 C 12.8345,4.5 12.5,4.8345 12.5,5.25 V 12.5 H 5.25 c -0.4155,0 -0.75,0.3345 -0.75,0.75 v 5.5 c 0,0.4155 0.3345,0.75 0.75,0.75 h 7.25 v 7.25 c 0,0.4155 0.3345,0.75 0.75,0.75 h 5.5 c 0.4155,0 0.75,-0.3345 0.75,-0.75 V 19.5 h 7.25 c 0.4155,0 0.75,-0.3345 0.75,-0.75 v -5.5 c 0,-0.4155 -0.3345,-0.75 -0.75,-0.75 H 19.5 V 5.25 C 19.5,4.8345 19.1655,4.5 18.75,4.5 Z" /><path
       style="display:inline;opacity:0.5;fill:none;stroke:url(#linearGradient3030-3);stroke-width:0.999998;stroke-linecap:butt;stroke-linejoin:round;stroke-miterlimit:4;stroke-dasharray:none;stroke-opacity:1"
       id="path2272"
       d="M 13.499999,13 V 5.4999995 H 18.5 V 12.988437 M 18.5,19 v 7.500002 H 13.499999 V 19" /><path
       style="display:inline;opacity:0.5;fill:none;stroke:url(#linearGradient3030-1-2);stroke-width:0.999999;stroke-linecap:butt;stroke-linejoin:round;stroke-miterlimit:4;stroke-dasharray:none;stroke-opacity:1"
       id="path2272-2"
       d="m 19,13.518188 7.499999,-0.01819 v 4.981814 L 19,18.500002 m -6,0 -7.5000007,-0.01819 v -4.98181 L 13,13.5" /></g></svg>
