<?xml version="1.0" encoding="UTF-8" standalone="no"?>
<svg
   id="svg5157"
   height="128"
   width="128"
   version="1.1"
   sodipodi:docname="128.svg"
   xml:space="preserve"
   inkscape:version="1.4.2 (f4327f4, 2025-05-13)"
   xmlns:inkscape="http://www.inkscape.org/namespaces/inkscape"
   xmlns:sodipodi="http://sodipodi.sourceforge.net/DTD/sodipodi-0.dtd"
   xmlns:xlink="http://www.w3.org/1999/xlink"
   xmlns="http://www.w3.org/2000/svg"
   xmlns:svg="http://www.w3.org/2000/svg"
   xmlns:rdf="http://www.w3.org/1999/02/22-rdf-syntax-ns#"
   xmlns:cc="http://creativecommons.org/ns#"
   xmlns:dc="http://purl.org/dc/elements/1.1/"
   xmlns:osb="http://www.openswatchbook.org/uri/2009/osb"><sodipodi:namedview
     id="namedview1"
     pagecolor="#ffffff"
     bordercolor="#000000"
     borderopacity="0.25"
     inkscape:showpageshadow="2"
     inkscape:pageopacity="0.0"
     inkscape:pagecheckerboard="0"
     inkscape:deskcolor="#d1d1d1"
     inkscape:zoom="1.7285156"
     inkscape:cx="-1.1570621"
     inkscape:cy="145.50056"
     inkscape:window-width="1920"
     inkscape:window-height="1129"
     inkscape:window-x="1912"
     inkscape:window-y="-8"
     inkscape:window-maximized="1"
     inkscape:current-layer="svg5157" /><defs
     id="defs5159"><linearGradient
       id="linearGradient3820-7-2-8-6"><stop
         offset="0"
         style="stop-color:#3d3d3d;stop-opacity:1"
         id="stop3822-2-6-5-0" /><stop
         offset="0.5"
         style="stop-color:#686868;stop-opacity:0.49803922"
         id="stop3864-8-7-4-1" /><stop
         offset="1"
         style="stop-color:#686868;stop-opacity:0"
         id="stop3824-1-2-6-7" /></linearGradient><radialGradient
       r="62.769119"
       fy="186.17059"
       fx="99.157013"
       cy="186.17059"
       cx="99.157013"
       gradientTransform="matrix(0.68505024,0,0,0.21502774,-3.9275321,68.468169)"
       gradientUnits="userSpaceOnUse"
       id="radialGradient3163"
       xlink:href="#linearGradient3820-7-2-8-6" /><linearGradient
       id="linearGradient2793-2-0-669-94-2"><stop
         offset="0"
         style="stop-color:#b4b4b4;stop-opacity:1"
         id="stop4681-3-1" /><stop
         offset="1"
         style="stop-color:#ffffff;stop-opacity:1"
         id="stop4683-67-4" /></linearGradient><linearGradient
       id="linearGradient4320"><stop
         id="stop4322"
         style="stop-color:#ffffff;stop-opacity:1"
         offset="0" /><stop
         id="stop4324"
         style="stop-color:#ffffff;stop-opacity:0.23529412"
         offset="0.00641762" /><stop
         id="stop4326"
         style="stop-color:#ffffff;stop-opacity:0.15686275"
         offset="0.79602259" /><stop
         id="stop4328"
         style="stop-color:#ffffff;stop-opacity:0.39215687"
         offset="1" /></linearGradient><linearGradient
       y2="55.545383"
       x2="105.11398"
       y1="7.9084787"
       x1="105.11398"
       gradientTransform="matrix(1.7623087,0,0,1.7633388,-109.35175,10.054672)"
       gradientUnits="userSpaceOnUse"
       id="linearGradient4301"
       xlink:href="#linearGradient5362" /><linearGradient
       y2="54.978275"
       x2="102.94453"
       y1="9.0426912"
       x1="102.94453"
       gradientTransform="matrix(1.7623087,0,0,1.7633388,-109.42005,10.054672)"
       gradientUnits="userSpaceOnUse"
       id="linearGradient4335"
       xlink:href="#linearGradient5668" /><linearGradient
       y2="-6.1177311"
       x2="260.38773"
       y1="-6.1177311"
       x1="448.08731"
       spreadMethod="reflect"
       gradientTransform="matrix(0.31433207,0,0,0.27483716,-60.848211,16.68138)"
       gradientUnits="userSpaceOnUse"
       id="linearGradient4372"
       xlink:href="#linearGradient2793-2-0-669-94-2" /><linearGradient
       y2="40.422989"
       x2="76.26046"
       y1="18.731905"
       x1="76.26046"
       gradientTransform="matrix(4.1006713,0,0,4.1030683,-208.71907,-47.858285)"
       gradientUnits="userSpaceOnUse"
       id="linearGradient4403"
       xlink:href="#linearGradient4320" /><linearGradient
       id="linearGradient5668"><stop
         style="stop-color:#ad5f00;stop-opacity:1"
         offset="0"
         id="stop5670" /><stop
         style="stop-color:#ad5f00;stop-opacity:0"
         offset="1"
         id="stop5672" /></linearGradient><linearGradient
       id="linearGradient5362"><stop
         style="stop-color:#ffe16b;stop-opacity:1"
         offset="0"
         id="stop5364" /><stop
         style="stop-color:#f9c440;stop-opacity:1"
         offset="1"
         id="stop5366" /></linearGradient><linearGradient
       id="linearGradient3811"><stop
         id="stop3813"
         style="stop-color:#000000;stop-opacity:1"
         offset="0" /><stop
         id="stop3815"
         style="stop-color:#000000;stop-opacity:0"
         offset="1" /></linearGradient><linearGradient
       xlink:href="#linearGradient121303"
       id="linearGradient121764"
       gradientUnits="userSpaceOnUse"
       gradientTransform="matrix(2.7165335,0,0,2.2968754,-1.1399118,20.805026)"
       x1="25.086039"
       y1="-1.3623691"
       x2="25.086039"
       y2="18.299334" /><linearGradient
       id="linearGradient121303"><stop
         id="stop121295"
         style="stop-color:#ffffff;stop-opacity:1"
         offset="0" /><stop
         id="stop121297"
         style="stop-color:#ffffff;stop-opacity:0.23529412"
         offset="0.11419468" /><stop
         id="stop121299"
         style="stop-color:#ffffff;stop-opacity:0.15686275"
         offset="0.93896598" /><stop
         id="stop121301"
         style="stop-color:#ffffff;stop-opacity:0.39215687"
         offset="1" /></linearGradient><linearGradient
       xlink:href="#c"
       id="linearGradient121762"
       gradientUnits="userSpaceOnUse"
       gradientTransform="matrix(2.9816134,0,0,2.4690237,-7.5219489,-9.3183754)"
       x1="24.537001"
       y1="21.915001"
       x2="24.537001"
       y2="9.9296083" /><linearGradient
       id="c"><stop
         offset="0"
         stop-color="#fff"
         id="stop36" /><stop
         offset="0.3312453"
         stop-color="#fff"
         id="stop38" /><stop
         offset="0.36582196"
         stop-color="#fff"
         stop-opacity=".643"
         id="stop40" /><stop
         offset="1"
         stop-color="#fff"
         stop-opacity=".391"
         id="stop42" /></linearGradient><linearGradient
       xlink:href="#linearGradient3924-2-2-5-8"
       id="linearGradient121760"
       gradientUnits="userSpaceOnUse"
       gradientTransform="matrix(2.7297301,0,0,2.2432431,-1.5135233,22.162164)"
       x1="23.99999"
       y1="5.9204559"
       x2="23.99999"
       y2="42.079544" /><linearGradient
       id="linearGradient3924-2-2-5-8"><stop
         id="stop3926-9-4-9-6"
         style="stop-color:#ffffff;stop-opacity:1"
         offset="0" /><stop
         id="stop3928-9-8-6-5"
         style="stop-color:#ffffff;stop-opacity:0.23529412"
         offset="0.09302325" /><stop
         id="stop3930-3-5-1-7"
         style="stop-color:#ffffff;stop-opacity:0.15686275"
         offset="0.9069767" /><stop
         id="stop3932-8-0-4-8"
         style="stop-color:#ffffff;stop-opacity:0.39215687"
         offset="1" /></linearGradient><linearGradient
       xlink:href="#d"
       id="linearGradient121758"
       gradientUnits="userSpaceOnUse"
       gradientTransform="matrix(3.2016266,0,0,2.9208732,-11.267548,-5.3533744)"
       x1="23.452"
       y1="30.555"
       x2="43.007"
       y2="45.933998" /><linearGradient
       id="d"><stop
         offset="0"
         stop-color="#fff"
         stop-opacity="0"
         id="stop65" /><stop
         offset="1"
         stop-color="#fff"
         stop-opacity="0"
         id="stop67" /></linearGradient><linearGradient
       xlink:href="#linearGradient855"
       id="linearGradient121756"
       gradientUnits="userSpaceOnUse"
       gradientTransform="matrix(3.2210845,0,0,3.4472746,108.33183,-32.504713)"
       x1="-5.8870335"
       y1="19.72085"
       x2="-5.8870335"
       y2="43.375748" /><linearGradient
       xlink:href="#linearGradient855"
       id="linearGradient1703"
       gradientUnits="userSpaceOnUse"
       gradientTransform="matrix(3.2210912,0,0,3.4505716,108.37008,-32.985306)"
       x1="-5.8870335"
       y1="11.482978"
       x2="-5.8870335"
       y2="22.148865" /><radialGradient
       cx="5"
       cy="41.5"
       fx="5"
       fy="41.5"
       gradientTransform="matrix(2.0057742,0,0,3.2,245.82223,-194.8)"
       gradientUnits="userSpaceOnUse"
       xlink:href="#linearGradient3811"
       id="k-0-7-3-9-3"
       r="5" /><linearGradient
       xlink:href="#h"
       id="linearGradient121754"
       gradientUnits="userSpaceOnUse"
       gradientTransform="matrix(4.2608664,0,0,2.9091,106.71847,-55.82)"
       x1="17.554001"
       y1="46"
       x2="17.554001"
       y2="35" /><linearGradient
       id="h"><stop
         offset="0"
         stop-opacity="0"
         id="stop54" /><stop
         offset=".5"
         id="stop56" /><stop
         offset="1"
         stop-opacity="0"
         id="stop58" /></linearGradient><radialGradient
       cx="5"
       cy="41.5"
       fx="5"
       fy="41.5"
       gradientTransform="matrix(2.0057742,0,0,3.2,-167.87841,-194.8)"
       gradientUnits="userSpaceOnUse"
       xlink:href="#linearGradient3811"
       id="i-6-9-7-8-9"
       r="5" /><linearGradient
       id="linearGradient855"><stop
         id="stop851"
         offset="0"
         style="stop-color:#fafafa;stop-opacity:1" /><stop
         id="stop853"
         offset="1"
         style="stop-color:#d4d4d4;stop-opacity:1" /></linearGradient><defs
       id="defs3051"><linearGradient
         id="linearGradient2"><stop
           id="stop1"
           style="stop-color:#000000;stop-opacity:1"
           offset="0" /><stop
           id="stop2"
           style="stop-color:#000000;stop-opacity:0"
           offset="1" /></linearGradient><linearGradient
         xlink:href="#linearGradient121303"
         id="linearGradient3"
         gradientUnits="userSpaceOnUse"
         gradientTransform="matrix(2.7165335,0,0,2.2968754,-1.1399118,20.805026)"
         x1="25.086039"
         y1="-1.3623691"
         x2="25.086039"
         y2="18.299334" /><linearGradient
         id="linearGradient6"><stop
           id="stop3"
           style="stop-color:#ffffff;stop-opacity:1"
           offset="0" /><stop
           id="stop4"
           style="stop-color:#ffffff;stop-opacity:0.23529412"
           offset="0.11419468" /><stop
           id="stop5"
           style="stop-color:#ffffff;stop-opacity:0.15686275"
           offset="0.93896598" /><stop
           id="stop6"
           style="stop-color:#ffffff;stop-opacity:0.39215687"
           offset="1" /></linearGradient><linearGradient
         xlink:href="#c"
         id="linearGradient7"
         gradientUnits="userSpaceOnUse"
         gradientTransform="matrix(2.9816134,0,0,2.4690237,-7.5219489,-9.3183754)"
         x1="24.537001"
         y1="21.915001"
         x2="24.537001"
         y2="9.9296083" /><linearGradient
         id="linearGradient10"><stop
           offset="0"
           stop-color="#fff"
           id="stop7" /><stop
           offset="0.3312453"
           stop-color="#fff"
           id="stop8" /><stop
           offset="0.36582196"
           stop-color="#fff"
           stop-opacity=".643"
           id="stop9" /><stop
           offset="1"
           stop-color="#fff"
           stop-opacity=".391"
           id="stop10" /></linearGradient><linearGradient
         xlink:href="#linearGradient3924-2-2-5-8"
         id="linearGradient11"
         gradientUnits="userSpaceOnUse"
         gradientTransform="matrix(2.7297301,0,0,2.2432431,-1.5135233,22.162164)"
         x1="23.99999"
         y1="5.9204559"
         x2="23.99999"
         y2="42.079544" /><linearGradient
         id="linearGradient14"><stop
           id="stop11"
           style="stop-color:#ffffff;stop-opacity:1"
           offset="0" /><stop
           id="stop12"
           style="stop-color:#ffffff;stop-opacity:0.23529412"
           offset="0.09302325" /><stop
           id="stop13"
           style="stop-color:#ffffff;stop-opacity:0.15686275"
           offset="0.9069767" /><stop
           id="stop14"
           style="stop-color:#ffffff;stop-opacity:0.39215687"
           offset="1" /></linearGradient><linearGradient
         xlink:href="#d"
         id="linearGradient15"
         gradientUnits="userSpaceOnUse"
         gradientTransform="matrix(3.2016266,0,0,2.9208732,-11.267548,-5.3533744)"
         x1="23.452"
         y1="30.555"
         x2="43.007"
         y2="45.933998" /><linearGradient
         id="linearGradient16"><stop
           offset="0"
           stop-color="#fff"
           stop-opacity="0"
           id="stop15" /><stop
           offset="1"
           stop-color="#fff"
           stop-opacity="0"
           id="stop16" /></linearGradient><linearGradient
         xlink:href="#linearGradient855"
         id="linearGradient17"
         gradientUnits="userSpaceOnUse"
         gradientTransform="matrix(3.2210845,0,0,3.4472746,108.33183,-32.504713)"
         x1="-5.8870335"
         y1="19.72085"
         x2="-5.8870335"
         y2="43.375748" /><linearGradient
         xlink:href="#linearGradient855"
         id="linearGradient18"
         gradientUnits="userSpaceOnUse"
         gradientTransform="matrix(3.2210912,0,0,3.4505716,108.37008,-32.985306)"
         x1="-5.8870335"
         y1="11.482978"
         x2="-5.8870335"
         y2="22.148865" /><radialGradient
         cx="5"
         cy="41.5"
         fx="5"
         fy="41.5"
         gradientTransform="matrix(2.0057742,0,0,3.2,245.82223,-194.8)"
         gradientUnits="userSpaceOnUse"
         xlink:href="#linearGradient3811"
         id="radialGradient18"
         r="5" /><linearGradient
         xlink:href="#h"
         id="linearGradient19"
         gradientUnits="userSpaceOnUse"
         gradientTransform="matrix(4.2608664,0,0,2.9091,106.71847,-55.82)"
         x1="17.554001"
         y1="46"
         x2="17.554001"
         y2="35" /><linearGradient
         id="linearGradient21"><stop
           offset="0"
           stop-opacity="0"
           id="stop19" /><stop
           offset=".5"
           id="stop20" /><stop
           offset="1"
           stop-opacity="0"
           id="stop21" /></linearGradient><radialGradient
         cx="5"
         cy="41.5"
         fx="5"
         fy="41.5"
         gradientTransform="matrix(2.0057742,0,0,3.2,-167.87841,-194.8)"
         gradientUnits="userSpaceOnUse"
         xlink:href="#linearGradient3811"
         id="radialGradient21"
         r="5" /><linearGradient
         id="linearGradient23"><stop
           id="stop22"
           offset="0"
           style="stop-color:#fafafa;stop-opacity:1" /><stop
           id="stop23"
           offset="1"
           style="stop-color:#d4d4d4;stop-opacity:1" /></linearGradient></defs><stop
       id="stop26"
       style="stop-color:#000000;stop-opacity:1"
       offset="0" /><stop
       id="stop27"
       style="stop-color:#000000;stop-opacity:0"
       offset="1" /><stop
       id="stop32"
       style="stop-color:#ffffff;stop-opacity:1"
       offset="0" /><stop
       id="stop33"
       style="stop-color:#ffffff;stop-opacity:0.23529412"
       offset="0.11419468" /><stop
       id="stop34"
       style="stop-color:#ffffff;stop-opacity:0.15686275"
       offset="0.93896598" /><stop
       id="stop35"
       style="stop-color:#ffffff;stop-opacity:0.39215687"
       offset="1" /><stop
       offset="0"
       stop-color="#fff"
       id="stop44" /><stop
       offset="0.3312453"
       stop-color="#fff"
       id="stop45" /><stop
       offset="0.36582196"
       stop-color="#fff"
       stop-opacity=".643"
       id="stop46" /><stop
       offset="1"
       stop-color="#fff"
       stop-opacity=".391"
       id="stop47" /><stop
       id="stop52"
       style="stop-color:#ffffff;stop-opacity:1"
       offset="0" /><stop
       id="stop53"
       style="stop-color:#ffffff;stop-opacity:0.23529412"
       offset="0.09302325" /><stop
       id="stop55"
       style="stop-color:#ffffff;stop-opacity:0.15686275"
       offset="0.9069767" /><stop
       id="stop57"
       style="stop-color:#ffffff;stop-opacity:0.39215687"
       offset="1" /><stop
       offset="0"
       stop-color="#fff"
       stop-opacity="0"
       id="stop61" /><stop
       offset="1"
       stop-color="#fff"
       stop-opacity="0"
       id="stop62" /><radialGradient
       cx="5"
       cy="41.5"
       fx="5"
       fy="41.5"
       gradientTransform="matrix(2.0057742,0,0,3.2,245.82223,-194.8)"
       gradientUnits="userSpaceOnUse"
       xlink:href="#linearGradient3811"
       id="radialGradient63"
       r="5" /><stop
       offset="0"
       stop-opacity="0"
       id="stop69" /><stop
       offset=".5"
       id="stop70" /><stop
       offset="1"
       stop-opacity="0"
       id="stop71" /><radialGradient
       cx="5"
       cy="41.5"
       fx="5"
       fy="41.5"
       gradientTransform="matrix(2.0057742,0,0,3.2,-167.87841,-194.8)"
       gradientUnits="userSpaceOnUse"
       xlink:href="#linearGradient3811"
       id="radialGradient71"
       r="5" /><stop
       id="stop74"
       offset="0"
       style="stop-color:#fafafa;stop-opacity:1" /><stop
       id="stop75"
       offset="1"
       style="stop-color:#d4d4d4;stop-opacity:1" /><linearGradient
       id="linearGradient78"><stop
         style="stop-color:#9bdb4d;stop-opacity:1"
         offset="0"
         id="stop74-9" /><stop
         style="stop-color:#68b723;stop-opacity:1"
         offset="1"
         id="stop76" /></linearGradient><linearGradient
       osb:paint="solid"
       id="linearGradient4526"><stop
         id="stop4528"
         offset="0"
         style="stop-color:#ffffff;stop-opacity:1;" /></linearGradient><linearGradient
       y2="9.2499981"
       x2="1.8003722"
       y1="9.2499981"
       x1="24.200359"
       gradientTransform="matrix(0,-1.4285723,-2.0000002,0,45.499998,42.571962)"
       gradientUnits="userSpaceOnUse"
       id="linearGradient942"
       xlink:href="#linearGradient78" /><linearGradient
       id="linearGradient965"><stop
         id="stop957"
         style="stop-color:#ffffff;stop-opacity:1"
         offset="0" /><stop
         id="stop959"
         style="stop-color:#ffffff;stop-opacity:0.23529412"
         offset="0" /><stop
         id="stop961"
         style="stop-color:#ffffff;stop-opacity:0.15686275"
         offset="1" /><stop
         id="stop963"
         style="stop-color:#ffffff;stop-opacity:0.39215687"
         offset="1" /></linearGradient><linearGradient
       gradientTransform="matrix(1.0237894,0,0,0.97676863,1.0666482,1.3973919)"
       gradientUnits="userSpaceOnUse"
       xlink:href="#linearGradient4333"
       id="linearGradient3030-1"
       y2="26.211538"
       x2="24.138529"
       y1="20.068834"
       x1="24.138529" /><linearGradient
       id="linearGradient4333"><stop
         id="stop4335"
         style="stop-color:#ffffff;stop-opacity:1"
         offset="0" /><stop
         id="stop4337"
         style="stop-color:#ffffff;stop-opacity:0.23529412"
         offset="0.00000005" /><stop
         id="stop4339"
         style="stop-color:#ffffff;stop-opacity:0.15686275"
         offset="1" /><stop
         id="stop4341"
         style="stop-color:#ffffff;stop-opacity:0.39215687"
         offset="1" /></linearGradient><linearGradient
       gradientTransform="matrix(0.9862845,0,0,1.0153465,1.9379648,0.49145742)"
       gradientUnits="userSpaceOnUse"
       xlink:href="#linearGradient965"
       id="linearGradient3030"
       y2="36.94162"
       x2="24.138529"
       y1="9.3648252"
       x1="24.138529" /><radialGradient
       gradientTransform="matrix(-0.52995454,0,0,-0.35307735,22.512547,21.835677)"
       gradientUnits="userSpaceOnUse"
       xlink:href="#linearGradient3811"
       id="radialGradient3862-3-0"
       fy="36.421127"
       fx="24.837126"
       r="15.644737"
       cy="36.421127"
       cx="24.837126" /><radialGradient
       cx="5"
       cy="41.5"
       fx="5"
       fy="41.5"
       gradientTransform="matrix(2.0057742,0,0,3.2,245.82223,-194.8)"
       gradientUnits="userSpaceOnUse"
       xlink:href="#linearGradient3811"
       id="radialGradient1"
       r="5" /><radialGradient
       cx="5"
       cy="41.5"
       fx="5"
       fy="41.5"
       gradientTransform="matrix(2.0057742,0,0,3.2,-167.87841,-194.8)"
       gradientUnits="userSpaceOnUse"
       xlink:href="#linearGradient3811"
       id="radialGradient2"
       r="5" /></defs><metadata
     id="metadata5162"><rdf:RDF><cc:Work
         rdf:about=""><dc:format>image/svg+xml</dc:format><dc:type
           rdf:resource="http://purl.org/dc/dcmitype/StillImage" /></cc:Work></rdf:RDF></metadata><path
     d="M 107,108.5 C 107.005,115.95538 87.751862,122 64.000001,122 40.24814,122 20.994886,115.95538 21.000002,108.5 20.994902,101.04462 40.746762,95 64.498623,95 88.250484,95 107.00512,101.04462 107,108.5 Z"
     id="path3818-0-5-0"
     style="fill:url(#radialGradient3163);fill-opacity:1;stroke:none;opacity:0.6" /><path
     id="path4337"
     d="M 20.992187,28.863282 64,15 106.99729,28.863282 C 106.99729,88 105.80525,93.785603 64,117.92188 22.231478,93.806807 20.992187,88 20.992187,28.863282 Z"
     style="color:#000000;clip-rule:nonzero;display:inline;overflow:visible;visibility:visible;opacity:1;isolation:auto;mix-blend-mode:normal;color-interpolation:sRGB;color-interpolation-filters:linearRGB;solid-color:#000000;solid-opacity:1;fill:url(#linearGradient4372);fill-opacity:1;fill-rule:nonzero;stroke:none;stroke-width:1;stroke-linecap:butt;stroke-linejoin:miter;stroke-miterlimit:4;stroke-dasharray:none;stroke-dashoffset:0;stroke-opacity:1;marker:none;color-rendering:auto;image-rendering:auto;shape-rendering:auto;text-rendering:auto;enable-background:accumulate" /><path
     style="color:#000000;font-style:normal;font-variant:normal;font-weight:normal;font-stretch:normal;font-size:medium;line-height:normal;font-family:sans-serif;text-indent:0;text-align:start;text-decoration:none;text-decoration-line:none;text-decoration-style:solid;text-decoration-color:#000000;letter-spacing:normal;word-spacing:normal;text-transform:none;writing-mode:lr-tb;direction:ltr;baseline-shift:baseline;text-anchor:start;white-space:normal;clip-rule:nonzero;display:inline;overflow:visible;visibility:visible;opacity:1;isolation:auto;mix-blend-mode:normal;color-interpolation:sRGB;color-interpolation-filters:linearRGB;solid-color:#000000;solid-opacity:1;fill:url(#linearGradient4301);fill-opacity:1;fill-rule:nonzero;stroke:none;stroke-width:1.13454;stroke-linecap:butt;stroke-linejoin:miter;stroke-miterlimit:4;stroke-dasharray:none;stroke-dashoffset:0;stroke-opacity:1;marker:none;color-rendering:auto;image-rendering:auto;shape-rendering:auto;text-rendering:auto;enable-background:accumulate"
     d="m 63.908735,25.000002 c -0.06142,-0.002 -0.122674,0.0073 -0.180706,0.02755 L 29.227051,37.028246 c -0.200736,0.0699 -0.335351,0.259161 -0.335595,0.47183 0,23.250001 -0.02731,35.816431 4.359304,45.168337 4.386611,9.351906 13.130093,15.28453 30.391219,25.265337 0.154464,0.089 0.344628,0.089 0.499092,0 17.261234,-9.965775 26.004638,-15.897606 30.391219,-25.253283 4.386582,-9.355677 4.359302,-21.93039 4.359302,-45.180391 -2.47e-4,-0.212669 -0.134861,-0.401931 -0.335597,-0.47183 L 64.055021,25.027554 c -0.04712,-0.01643 -0.09642,-0.02573 -0.146286,-0.02755 z"
     id="path4274" /><path
     style="color:#000000;clip-rule:nonzero;display:inline;overflow:visible;visibility:visible;opacity:0.5;isolation:auto;mix-blend-mode:normal;color-interpolation:sRGB;color-interpolation-filters:linearRGB;solid-color:#000000;solid-opacity:1;fill:none;fill-opacity:1;fill-rule:nonzero;stroke:#555761;stroke-width:1;stroke-linecap:round;stroke-linejoin:round;stroke-miterlimit:4;stroke-dasharray:none;stroke-dashoffset:0;stroke-opacity:1;color-rendering:auto;image-rendering:auto;shape-rendering:auto;text-rendering:auto;enable-background:accumulate"
     d="m 20.5,28.5 43.5,-14 43.5,14 c 0,59.5 -1,65.448278 -43.5,90.00001 C 21.5,93.948278 20.5,88 20.5,28.5 Z"
     id="path8117" /><path
     id="path8128"
     d="m 29.5,37.5 34.5,-12 34.500003,12 c 0,46.5 0,50.081415 -34.500003,70 C 29.5,87.551247 29.5,84 29.5,37.5 Z"
     style="opacity:0.5;fill:none;fill-opacity:1;stroke:#555761;stroke-width:1;stroke-linecap:round;stroke-linejoin:round;stroke-opacity:1" /><path
     style="color:#000000;font-style:normal;font-variant:normal;font-weight:normal;font-stretch:normal;font-size:medium;line-height:normal;font-family:sans-serif;text-indent:0;text-align:start;text-decoration:none;text-decoration-line:none;text-decoration-style:solid;text-decoration-color:#000000;letter-spacing:normal;word-spacing:normal;text-transform:none;direction:ltr;block-progression:tb;writing-mode:lr-tb;baseline-shift:baseline;text-anchor:start;white-space:normal;clip-rule:nonzero;display:inline;overflow:visible;visibility:visible;opacity:0.3;isolation:auto;mix-blend-mode:normal;color-interpolation:sRGB;color-interpolation-filters:linearRGB;solid-color:#000000;solid-opacity:1;fill:#ffffff;fill-opacity:1;fill-rule:nonzero;stroke:none;stroke-width:1;stroke-linecap:butt;stroke-linejoin:miter;stroke-miterlimit:4;stroke-dasharray:none;stroke-dashoffset:0;stroke-opacity:1;marker:none;color-rendering:auto;image-rendering:auto;shape-rendering:auto;text-rendering:auto;enable-background:accumulate"
     d="m 29.007812,45.732422 c 0.04234,18.688179 0.446673,29.610631 4.351563,37.935547 4.386612,9.351906 13.129499,15.284816 30.390625,25.265621 0.154464,0.089 0.345536,0.089 0.5,0 C 81.511234,98.967816 90.254043,93.035365 94.640625,83.679688 98.545489,75.351414 98.949844,64.422083 98.992188,45.732422 98.937436,63.842894 98.478884,74.49347 94.640625,82.679688 90.254043,92.035365 81.511234,97.967816 64.25,107.93359 c -0.154464,0.089 -0.345536,0.089 -0.5,0 C 46.488874,97.952785 37.745987,92.019875 33.359375,82.667969 29.52109,74.485051 29.062559,63.841257 29.007812,45.732422 Z"
     id="path4305" /><path
     style="color:#000000;clip-rule:nonzero;display:inline;overflow:visible;visibility:visible;opacity:0.15;isolation:auto;mix-blend-mode:normal;color-interpolation:sRGB;color-interpolation-filters:linearRGB;solid-color:#000000;solid-opacity:1;fill:none;fill-opacity:0;fill-rule:nonzero;stroke:url(#linearGradient4335);stroke-width:1;stroke-linecap:round;stroke-linejoin:miter;stroke-miterlimit:4;stroke-dasharray:none;stroke-dashoffset:0;stroke-opacity:1;marker:none;color-rendering:auto;image-rendering:auto;shape-rendering:auto;text-rendering:auto;enable-background:accumulate"
     d="M 30.5,38.207214 64,26.558594 97.499998,38.212738 C 97.499998,84 96.999996,87.291191 64,106.34375 31,87.262335 30.5,84 30.5,38.207214 Z"
     id="path4310" /><path
     id="path4374"
     d="M 21.5,29.223787 64,15.533146 106.5,29.223787 C 106.5,88 105.31212,93.5 64,117.35156 22.687882,93.5 21.5,88 21.5,29.223787 Z"
     style="color:#000000;clip-rule:nonzero;display:inline;overflow:visible;visibility:visible;opacity:0.7;isolation:auto;mix-blend-mode:normal;color-interpolation:sRGB;color-interpolation-filters:linearRGB;solid-color:#000000;solid-opacity:1;fill:none;fill-opacity:1;fill-rule:nonzero;stroke:url(#linearGradient4403);stroke-width:1;stroke-linecap:round;stroke-linejoin:round;stroke-miterlimit:4;stroke-dasharray:none;stroke-dashoffset:0;stroke-opacity:1;marker:none;color-rendering:auto;image-rendering:auto;shape-rendering:auto;text-rendering:auto;enable-background:accumulate" /><path
     style="color:#000000;clip-rule:nonzero;display:inline;overflow:visible;visibility:visible;opacity:0.2;isolation:auto;mix-blend-mode:normal;color-interpolation:sRGB;color-interpolation-filters:linearRGB;solid-color:#000000;solid-opacity:1;fill:#ffffff;fill-opacity:1;fill-rule:nonzero;stroke:none;stroke-width:1;stroke-linecap:butt;stroke-linejoin:miter;stroke-miterlimit:4;stroke-dasharray:none;stroke-dashoffset:0;stroke-opacity:1;marker:none;color-rendering:auto;image-rendering:auto;shape-rendering:auto;text-rendering:auto;enable-background:accumulate"
     d="M 20.992187,28.863282 64,15 c 0,41 0,61 0,102.92188 C 22.231478,93.806807 20.992187,88 20.992187,28.863282 Z"
     id="path4417" /><g
     id="g2"
     transform="translate(-1.084746,-15.664266)"><g
       transform="matrix(0.62111822,0,0,0.62100781,69.184719,82.020383)"
       id="g2230"
       style="opacity:0.15;stroke-width:1.18771"><path
         d="m -1.274407,-1.098966 c -1.494,0.02 0.281,0.768 2.232,1.069 0.541,-0.422 1.027,-0.846 1.463,-1.26 -1.213,0.297 -2.449,0.304 -3.695,0.191"
         id="path2206"
         style="fill:#ffffff;fill-opacity:1;stroke-width:1.18771" /><path
         d="m 6.742593,-3.097966 c 0.893,-1.229 1.541,-2.573 1.77,-3.963 -0.201,0.99 -0.736,1.845 -1.244,2.749 -2.793,1.759 -0.264,-1.044 -0.002,-2.111 -3.002,3.783 -0.414,2.268 -0.524,3.325"
         id="path2208"
         style="fill:#ffffff;fill-opacity:1;stroke-width:1.18771" /><path
         d="m 9.705593,-10.801966 c 0.182,-2.691 -0.529,-1.839 -0.768,-0.814 0.278,0.146 0.499,1.898 0.768,0.814"
         id="path2210"
         style="fill:#ffffff;fill-opacity:1;stroke-width:1.18771" /><path
         d="m -6.942407,-47.580966 c 0.798,0.142 1.724,0.252 1.591,0.443 0.876,-0.193 1.073,-0.367 -1.591,-0.443"
         id="path2212"
         style="fill:#ffffff;fill-opacity:1;stroke-width:1.18771" /><path
         d="m -5.350407,-47.137966 -0.561,0.117 0.523,-0.048 0.038,-0.069"
         id="path2214"
         style="fill:#ffffff;fill-opacity:1;stroke-width:1.18771" /><path
         d="m 19.518593,-9.781966 c 0.09,2.416 -0.705,3.59 -1.424,5.666 l -1.293,0.643 c -1.057,2.054 0.105,1.304 -0.652,2.937 -1.652,1.467 -5.006,4.589 -6.08,4.875 -0.785,-0.017 0.531,-0.926 0.703,-1.281 -2.209,1.516 -1.773,2.276 -5.152,3.199 l -0.098,-0.221 c -8.33,3.92 -19.902,-3.847 -19.75,-14.443 -0.088,0.672 -0.253,0.504 -0.437,0.774 -0.43,-5.451 2.518,-10.926 7.49,-13.165 4.863,-2.406 10.564,-1.42 14.045,1.829 -1.912,-2.506 -5.721,-5.163 -10.232,-4.917 -4.421,0.072 -8.558,2.881 -9.938,5.932 -2.264,1.425 -2.528,5.496 -3.514,6.242 -1.329,9.76 2.497,13.975 8.97,18.936 1.016,0.686 0.286,0.791 0.422,1.313 -2.15,-1.006 -4.118,-2.526 -5.738,-4.387 0.86,1.257 1.787,2.479 2.986,3.439 -2.029,-0.685 -4.738,-4.913 -5.527,-5.085 3.495,6.258 14.178,10.975 19.775,8.634 -2.59,0.096 -5.879,0.053 -8.787,-1.022 -1.225,-0.629 -2.884,-1.93 -2.587,-2.173 7.636,2.851 15.522,2.158 22.128,-3.137 1.682,-1.31 3.518,-3.537 4.049,-3.567 -0.799,1.202 0.137,0.578 -0.477,1.639 1.672,-2.701 -0.729,-1.1 1.73,-4.664 l 0.908,1.25 c -0.34,-2.244 2.785,-4.966 2.467,-8.512 0.717,-1.084 0.799,1.168 0.039,3.662 1.055,-2.767 0.279,-3.212 0.549,-5.496 0.291,0.768 0.678,1.583 0.875,2.394 -0.688,-2.675 0.703,-4.503 1.049,-6.058 -0.342,-0.15 -1.061,1.182 -1.227,-1.976 0.025,-1.372 0.383,-0.719 0.52,-1.057 -0.268,-0.155 -0.975,-1.207 -1.404,-3.224 0.309,-0.475 0.832,1.229 1.256,1.298 -0.273,-1.603 -0.742,-2.826 -0.762,-4.057 -1.24,-2.59 -0.439,0.346 -1.443,-1.112 -1.32,-4.114 1.094,-0.955 1.258,-2.823 1.998,2.895 3.137,7.385 3.662,9.244 -0.4,-2.267 -1.045,-4.464 -1.834,-6.589 0.609,0.257 -0.979,-4.663 0.791,-1.405 -1.889,-6.945 -8.078,-13.435 -13.773,-16.479 0.695,0.637 1.574,1.437 1.26,1.563 -2.834,-1.685 -2.336,-1.818 -2.742,-2.53 -2.305,-0.939 -2.459,0.077 -3.984,0.002 -4.35,-2.308 -5.188,-2.063 -9.191,-3.507 l 0.182,0.852 c -2.881,-0.96 -3.357,0.362 -6.47,0.002 -0.189,-0.147 0.998,-0.536 1.976,-0.677 -2.786,0.368 -2.656,-0.55 -5.382,0.101 0.671,-0.471 1.383,-0.784 2.099,-1.184 -2.271,0.138 -5.424,1.322 -4.451,0.244 -3.705,1.654 -10.286,3.975 -13.979,7.438 l -0.116,-0.776 c -1.692,2.031 -7.379,6.066 -7.832,8.699 l -0.453,0.105 c -0.879,1.491 -1.45,3.18 -2.148,4.713 -1.151,1.963 -1.688,0.756 -1.524,1.064 -2.265,4.592 -3.392,8.45 -4.363,11.616 0.692,1.035 0.017,6.232 0.278,10.391 -1.136,20.544 14.418,40.489 31.42,45.093 2.492,0.893 6.197,0.861 9.349,0.949 -3.718,-1.064 -4.198,-0.563 -7.822,-1.826 -2.613,-1.232 -3.185,-2.637 -5.037,-4.244 l 0.733,1.295 c -3.63,-1.285 -2.111,-1.59 -5.065,-2.525 l 0.783,-1.021 c -1.177,-0.09 -3.117,-1.982 -3.647,-3.033 l -1.288,0.051 c -1.546,-1.906 -2.371,-3.283 -2.31,-4.35 l -0.416,0.742 c -0.471,-0.809 -5.691,-7.158 -2.983,-5.68 -0.503,-0.458 -1.172,-0.747 -1.897,-2.066 l 0.551,-0.629 c -1.301,-1.677 -2.398,-3.826 -2.314,-4.542 0.695,0.938 1.177,1.114 1.655,1.275 -3.291,-8.164 -3.476,-0.449 -5.967,-8.31 l 0.526,-0.042 c -0.403,-0.611 -0.65,-1.27 -0.974,-1.919 l 0.23,-2.285 c -2.368,-2.736 -0.662,-11.645 -0.319,-16.53 0.235,-1.986 1.977,-4.101 3.3,-7.418 l -0.806,-0.138 c 1.542,-2.688 8.802,-10.799 12.166,-10.383 1.629,-2.046 -0.324,-0.008 -0.643,-0.522 3.579,-3.703 4.704,-2.616 7.119,-3.283 2.603,-1.545 -2.235,0.604 -1.001,-0.589 4.503,-1.149 3.19,-2.614 9.063,-3.197 0.62,0.352 -1.437,0.544 -1.953,1.001 3.75,-1.836 11.869,-1.417 17.145,1.018 6.117,2.861 12.994,11.314 13.266,19.267 l 0.309,0.083 c -0.156,3.162 0.484,6.819 -0.627,10.177 l 0.751,-1.591"
         id="path2216"
         style="fill:#ffffff;fill-opacity:1;stroke-width:1.18771" /><path
         d="m -17.585407,0.951034 -0.211,1.047 c 0.983,1.335 1.763,2.781 3.016,3.821 -0.902,-1.759 -1.571,-2.486 -2.805,-4.868"
         id="path2218"
         style="fill:#ffffff;fill-opacity:1;stroke-width:1.18771" /><path
         d="m -15.264407,0.861034 c -0.52,-0.576 -0.826,-1.268 -1.172,-1.956 0.33,1.211 1.006,2.252 1.633,3.312 l -0.461,-1.356"
         id="path2220"
         style="fill:#ffffff;fill-opacity:1;stroke-width:1.18771" /><path
         d="m 25.819593,-8.068966 -0.219,0.552 c -0.402,2.858 -1.273,5.686 -2.605,8.309 1.472,-2.767 2.421,-5.794 2.824,-8.861"
         id="path2222"
         style="fill:#ffffff;fill-opacity:1;stroke-width:1.18771" /><path
         d="m -6.645407,-48.297966 c 1.009,-0.369 2.482,-0.203 3.556,-0.446 -1.398,0.117 -2.789,0.187 -4.162,0.362 l 0.606,0.084"
         id="path2224"
         style="fill:#ffffff;fill-opacity:1;stroke-width:1.18771" /><path
         d="m -42.116407,-29.435966 c 0.233,2.154 -1.62,2.991 0.41,1.569 1.09,-2.454 -0.424,-0.677 -0.41,-1.569"
         id="path2226"
         style="fill:#ffffff;fill-opacity:1;stroke-width:1.18771" /><path
         d="m -44.504407,-19.461966 c 0.469,-1.437 0.553,-2.299 0.732,-3.132 -1.293,1.654 -0.596,2.007 -0.732,3.132"
         id="path2228"
         style="fill:#ffffff;fill-opacity:1;stroke-width:1.18771" /></g><g
       transform="matrix(0.62111822,0,0,0.62100781,71.354211,81.848915)"
       id="g3141"
       style="stroke-width:1.18771"><path
         d="m -1.274407,-1.098966 c -1.494,0.02 0.281,0.768 2.232,1.069 0.541,-0.422 1.027,-0.846 1.463,-1.26 -1.213,0.297 -2.449,0.304 -3.695,0.191"
         id="path3022"
         style="fill:#7a0000;fill-opacity:1;stroke-width:1.18829;stroke-dasharray:none" /><path
         d="m 6.742593,-3.097966 c 0.893,-1.229 1.541,-2.573 1.77,-3.963 -0.201,0.99 -0.736,1.845 -1.244,2.749 -2.793,1.759 -0.264,-1.044 -0.002,-2.111 -3.002,3.783 -0.414,2.268 -0.524,3.325"
         id="path3024"
         style="fill:#7a0000;fill-opacity:1;stroke-width:1.18829;stroke-dasharray:none" /><path
         d="m 9.705593,-10.801966 c 0.182,-2.691 -0.529,-1.839 -0.768,-0.814 0.278,0.146 0.499,1.898 0.768,0.814"
         id="path3026"
         style="fill:#7a0000;fill-opacity:1;stroke-width:1.18829;stroke-dasharray:none" /><path
         d="m -6.942407,-47.580966 c 0.798,0.142 1.724,0.252 1.591,0.443 0.876,-0.193 1.073,-0.367 -1.591,-0.443"
         id="path3028"
         style="fill:#7a0000;fill-opacity:1;stroke-width:1.18829;stroke-dasharray:none" /><path
         d="m -5.350407,-47.137966 -0.561,0.117 0.523,-0.048 0.038,-0.069"
         id="path3030"
         style="fill:#7a0000;fill-opacity:1;stroke-width:1.18829;stroke-dasharray:none" /><path
         d="m 19.518593,-9.781966 c 0.09,2.416 -0.705,3.59 -1.424,5.666 l -1.293,0.643 c -1.057,2.054 0.105,1.304 -0.652,2.937 -1.652,1.467 -5.006,4.589 -6.08,4.875 -0.785,-0.017 0.531,-0.926 0.703,-1.281 -2.209,1.516 -1.773,2.276 -5.152,3.199 l -0.098,-0.221 c -8.33,3.92 -19.902,-3.847 -19.75,-14.443 -0.088,0.672 -0.253,0.504 -0.437,0.774 -0.43,-5.451 2.518,-10.926 7.49,-13.165 4.863,-2.406 10.564,-1.42 14.045,1.829 -1.912,-2.506 -5.721,-5.163 -10.232,-4.917 -4.421,0.072 -8.558,2.881 -9.938,5.932 -2.264,1.425 -2.528,5.496 -3.514,6.242 -1.329,9.76 2.497,13.975 8.97,18.936 1.016,0.686 0.286,0.791 0.422,1.313 -2.15,-1.006 -4.118,-2.526 -5.738,-4.387 0.86,1.257 1.787,2.479 2.986,3.439 -2.029,-0.685 -4.738,-4.913 -5.527,-5.085 3.495,6.258 14.178,10.975 19.775,8.634 -2.59,0.096 -5.879,0.053 -8.787,-1.022 -1.225,-0.629 -2.884,-1.93 -2.587,-2.173 7.636,2.851 15.522,2.158 22.128,-3.137 1.682,-1.31 3.518,-3.537 4.049,-3.567 -0.799,1.202 0.137,0.578 -0.477,1.639 1.672,-2.701 -0.729,-1.1 1.73,-4.664 l 0.908,1.25 c -0.34,-2.244 2.785,-4.966 2.467,-8.512 0.717,-1.084 0.799,1.168 0.039,3.662 1.055,-2.767 0.279,-3.212 0.549,-5.496 0.291,0.768 0.678,1.583 0.875,2.394 -0.688,-2.675 0.703,-4.503 1.049,-6.058 -0.342,-0.15 -1.061,1.182 -1.227,-1.976 0.025,-1.372 0.383,-0.719 0.52,-1.057 -0.268,-0.155 -0.975,-1.207 -1.404,-3.224 0.309,-0.475 0.832,1.229 1.256,1.298 -0.273,-1.603 -0.742,-2.826 -0.762,-4.057 -1.24,-2.59 -0.439,0.346 -1.443,-1.112 -1.32,-4.114 1.094,-0.955 1.258,-2.823 1.998,2.895 3.137,7.385 3.662,9.244 -0.4,-2.267 -1.045,-4.464 -1.834,-6.589 0.609,0.257 -0.979,-4.663 0.791,-1.405 -1.889,-6.945 -8.078,-13.435 -13.773,-16.479 0.695,0.637 1.574,1.437 1.26,1.563 -2.834,-1.685 -2.336,-1.818 -2.742,-2.53 -2.305,-0.939 -2.459,0.077 -3.984,0.002 -4.35,-2.308 -5.188,-2.063 -9.191,-3.507 l 0.182,0.852 c -2.881,-0.96 -3.357,0.362 -6.47,0.002 -0.189,-0.147 0.998,-0.536 1.976,-0.677 -2.786,0.368 -2.656,-0.55 -5.382,0.101 0.671,-0.471 1.383,-0.784 2.099,-1.184 -2.271,0.138 -5.424,1.322 -4.451,0.244 -3.705,1.654 -10.286,3.975 -13.979,7.438 l -0.116,-0.776 c -1.692,2.031 -7.379,6.066 -7.832,8.699 l -0.453,0.105 c -0.879,1.491 -1.45,3.18 -2.148,4.713 -1.151,1.963 -1.688,0.756 -1.524,1.064 -2.265,4.592 -3.392,8.45 -4.363,11.616 0.692,1.035 0.017,6.232 0.278,10.391 -1.136,20.544 14.418,40.489 31.42,45.093 2.492,0.893 6.197,0.861 9.349,0.949 -3.718,-1.064 -4.198,-0.563 -7.822,-1.826 -2.613,-1.232 -3.185,-2.637 -5.037,-4.244 l 0.733,1.295 c -3.63,-1.285 -2.111,-1.59 -5.065,-2.525 l 0.783,-1.021 c -1.177,-0.09 -3.117,-1.982 -3.647,-3.033 l -1.288,0.051 c -1.546,-1.906 -2.371,-3.283 -2.31,-4.35 l -0.416,0.742 c -0.471,-0.809 -5.691,-7.158 -2.983,-5.68 -0.503,-0.458 -1.172,-0.747 -1.897,-2.066 l 0.551,-0.629 c -1.301,-1.677 -2.398,-3.826 -2.314,-4.542 0.695,0.938 1.177,1.114 1.655,1.275 -3.291,-8.164 -3.476,-0.449 -5.967,-8.31 l 0.526,-0.042 c -0.403,-0.611 -0.65,-1.27 -0.974,-1.919 l 0.23,-2.285 c -2.368,-2.736 -0.662,-11.645 -0.319,-16.53 0.235,-1.986 1.977,-4.101 3.3,-7.418 l -0.806,-0.138 c 1.542,-2.688 8.802,-10.799 12.166,-10.383 1.629,-2.046 -0.324,-0.008 -0.643,-0.522 3.579,-3.703 4.704,-2.616 7.119,-3.283 2.603,-1.545 -2.235,0.604 -1.001,-0.589 4.503,-1.149 3.19,-2.614 9.063,-3.197 0.62,0.352 -1.437,0.544 -1.953,1.001 3.75,-1.836 11.869,-1.417 17.145,1.018 6.117,2.861 12.994,11.314 13.266,19.267 l 0.309,0.083 c -0.156,3.162 0.484,6.819 -0.627,10.177 l 0.751,-1.591"
         id="path3032"
         style="fill:#7a0000;fill-opacity:1;stroke-width:1.18829;stroke-dasharray:none" /><path
         d="m -17.585407,0.951034 -0.211,1.047 c 0.983,1.335 1.763,2.781 3.016,3.821 -0.902,-1.759 -1.571,-2.486 -2.805,-4.868"
         id="path3034"
         style="fill:#7a0000;fill-opacity:1;stroke-width:1.18829;stroke-dasharray:none" /><path
         d="m -15.264407,0.861034 c -0.52,-0.576 -0.826,-1.268 -1.172,-1.956 0.33,1.211 1.006,2.252 1.633,3.312 l -0.461,-1.356"
         id="path3036"
         style="fill:#7a0000;fill-opacity:1;stroke-width:1.18829;stroke-dasharray:none" /><path
         d="m 25.819593,-8.068966 -0.219,0.552 c -0.402,2.858 -1.273,5.686 -2.605,8.309 1.472,-2.767 2.421,-5.794 2.824,-8.861"
         id="path3038"
         style="fill:#7a0000;fill-opacity:1;stroke-width:1.18829;stroke-dasharray:none" /><path
         d="m -6.645407,-48.297966 c 1.009,-0.369 2.482,-0.203 3.556,-0.446 -1.398,0.117 -2.789,0.187 -4.162,0.362 l 0.606,0.084"
         id="path3040"
         style="fill:#7a0000;fill-opacity:1;stroke-width:1.18829;stroke-dasharray:none" /><path
         d="m -42.116407,-29.435966 c 0.233,2.154 -1.62,2.991 0.41,1.569 1.09,-2.454 -0.424,-0.677 -0.41,-1.569"
         id="path3042"
         style="fill:#7a0000;fill-opacity:1;stroke-width:1.18829;stroke-dasharray:none" /><path
         d="m -44.504407,-19.461966 c 0.469,-1.437 0.553,-2.299 0.732,-3.132 -1.293,1.654 -0.596,2.007 -0.732,3.132"
         id="path3044"
         style="fill:#7a0000;fill-opacity:1;stroke-width:1.18829;stroke-dasharray:none" /></g></g></svg>
