<?xml version="1.0" encoding="UTF-8" standalone="no"?>
<svg
   id="svg3935"
   height="16"
   width="16"
   version="1.1"
   sodipodi:docname="16.svg"
   xml:space="preserve"
   inkscape:version="1.4.2 (f4327f4, 2025-05-13)"
   xmlns:inkscape="http://www.inkscape.org/namespaces/inkscape"
   xmlns:sodipodi="http://sodipodi.sourceforge.net/DTD/sodipodi-0.dtd"
   xmlns:xlink="http://www.w3.org/1999/xlink"
   xmlns="http://www.w3.org/2000/svg"
   xmlns:svg="http://www.w3.org/2000/svg"
   xmlns:rdf="http://www.w3.org/1999/02/22-rdf-syntax-ns#"
   xmlns:cc="http://creativecommons.org/ns#"
   xmlns:dc="http://purl.org/dc/elements/1.1/"><sodipodi:namedview
     id="namedview1"
     pagecolor="#ffffff"
     bordercolor="#000000"
     borderopacity="0.25"
     inkscape:showpageshadow="2"
     inkscape:pageopacity="0.0"
     inkscape:pagecheckerboard="0"
     inkscape:deskcolor="#d1d1d1"
     inkscape:zoom="6.9140625"
     inkscape:cx="-10.124294"
     inkscape:cy="-7.159322"
     inkscape:window-width="1920"
     inkscape:window-height="1129"
     inkscape:window-x="1912"
     inkscape:window-y="-8"
     inkscape:window-maximized="1"
     inkscape:current-layer="g2" /><defs
     id="defs3937"><linearGradient
       id="linearGradient2793-2-0-669-94-2"><stop
         id="stop4681-3-1"
         style="stop-color:#b4b4b4;stop-opacity:1"
         offset="0" /><stop
         id="stop4683-67-4"
         style="stop-color:#ffffff;stop-opacity:1"
         offset="1" /></linearGradient><linearGradient
       id="linearGradient4342"><stop
         id="stop4344"
         style="stop-color:#ffffff;stop-opacity:1"
         offset="0" /><stop
         id="stop4346"
         style="stop-color:#ffffff;stop-opacity:0.23529412"
         offset="0.00641762" /><stop
         id="stop4348"
         style="stop-color:#ffffff;stop-opacity:0.15686275"
         offset="0.79602259" /><stop
         id="stop4350"
         style="stop-color:#ffffff;stop-opacity:1"
         offset="1" /></linearGradient><linearGradient
       y2="47.962486"
       x2="261.29803"
       y1="14.362497"
       x1="261.29803"
       gradientTransform="matrix(0.35645937,0,0,0.35714296,-82.642136,-3.1294649)"
       gradientUnits="userSpaceOnUse"
       id="linearGradient4304"
       xlink:href="#linearGradient5362" /><linearGradient
       y2="35.930286"
       x2="154.28181"
       y1="22.091986"
       x1="154.28181"
       gradientTransform="matrix(0.82943625,0,0,0.83102689,-114.96693,-14.859033)"
       gradientUnits="userSpaceOnUse"
       id="linearGradient4335"
       xlink:href="#linearGradient4342" /><linearGradient
       y2="45.162487"
       x2="225.22734"
       y1="17.162497"
       x1="225.22734"
       gradientTransform="matrix(0.35645937,0,0,0.35714296,-70.784396,-3.1294649)"
       gradientUnits="userSpaceOnUse"
       id="linearGradient4362"
       xlink:href="#linearGradient5668" /><linearGradient
       y2="51.275898"
       x2="1366.4091"
       y1="51.275898"
       x1="1507.9642"
       spreadMethod="reflect"
       gradientTransform="matrix(0.06357945,0,0,0.05566495,-84.875534,-1.7873052)"
       gradientUnits="userSpaceOnUse"
       id="linearGradient4368"
       xlink:href="#linearGradient2793-2-0-669-94-2" /><linearGradient
       id="linearGradient5668"><stop
         id="stop5670"
         offset="0"
         style="stop-color:#ad5f00;stop-opacity:1" /><stop
         id="stop5672"
         offset="1"
         style="stop-color:#ad5f00;stop-opacity:0" /></linearGradient><linearGradient
       id="linearGradient5362"><stop
         id="stop5364"
         offset="0"
         style="stop-color:#ffe16b;stop-opacity:1" /><stop
         id="stop5366"
         offset="1"
         style="stop-color:#f9c440;stop-opacity:1" /></linearGradient><linearGradient
       id="linearGradient121303"><stop
         id="stop121295"
         style="stop-color:#ffffff;stop-opacity:1"
         offset="0" /><stop
         id="stop121297"
         style="stop-color:#ffffff;stop-opacity:0.23529412"
         offset="0" /><stop
         id="stop121299"
         style="stop-color:#ffffff;stop-opacity:0.15686275"
         offset="0.93896598" /><stop
         id="stop121301"
         style="stop-color:#ffffff;stop-opacity:0.39215687"
         offset="1" /></linearGradient><linearGradient
       id="g"><stop
         offset="0"
         id="stop13" /><stop
         offset="1"
         stop-opacity="0"
         id="stop15" /></linearGradient><linearGradient
       id="c"><stop
         offset="0"
         stop-color="#fff"
         id="stop36" /><stop
         offset="0.28147671"
         stop-color="#fff"
         id="stop38" /><stop
         offset="0.42782003"
         stop-color="#fff"
         stop-opacity=".643"
         id="stop40" /><stop
         offset="1"
         stop-color="#fff"
         stop-opacity=".391"
         id="stop42" /></linearGradient><linearGradient
       id="h"><stop
         offset="0"
         stop-opacity="0"
         id="stop54" /><stop
         offset=".5"
         id="stop56" /><stop
         offset="1"
         stop-opacity="0"
         id="stop58" /></linearGradient><linearGradient
       id="linearGradient3924-2-2-5-8"><stop
         id="stop3926-9-4-9-6"
         style="stop-color:#ffffff;stop-opacity:1"
         offset="0" /><stop
         id="stop3928-9-8-6-5"
         style="stop-color:#ffffff;stop-opacity:0.23529412"
         offset="0" /><stop
         id="stop3930-3-5-1-7"
         style="stop-color:#ffffff;stop-opacity:0.15686275"
         offset="1" /><stop
         id="stop3932-8-0-4-8"
         style="stop-color:#ffffff;stop-opacity:0.39215687"
         offset="1" /></linearGradient><radialGradient
       cx="5"
       cy="41.5"
       fx="5"
       fy="41.5"
       gradientTransform="matrix(0.27196938,0,0,0.6,-5.2159268,-73.9)"
       gradientUnits="userSpaceOnUse"
       xlink:href="#g"
       id="i-6-9-7-8-9"
       r="5" /><radialGradient
       cx="5"
       cy="41.5"
       fx="5"
       fy="41.5"
       gradientTransform="matrix(0.27196938,0,0,0.6,15.78458,-73.9)"
       gradientUnits="userSpaceOnUse"
       xlink:href="#g"
       id="k-0-7-3-9-3"
       r="5" /><linearGradient
       xlink:href="#h"
       id="linearGradient121754"
       gradientUnits="userSpaceOnUse"
       gradientTransform="matrix(0.5777446,0,0,0.54545625,-3.0769464,26.90875)"
       x1="17.554001"
       y1="46"
       x2="17.554001"
       y2="35" /><linearGradient
       xlink:href="#linearGradient855"
       id="linearGradient121756"
       gradientUnits="userSpaceOnUse"
       gradientTransform="matrix(0.40654575,0,0,0.42658187,13.595313,-4.1863742)"
       x1="-5.8870335"
       y1="19.190628"
       x2="-5.8870335"
       y2="42.632786" /><linearGradient
       xlink:href="#linearGradient3924-2-2-5-8"
       id="linearGradient121760"
       gradientUnits="userSpaceOnUse"
       gradientTransform="matrix(0.29729766,0,0,0.24324357,0.86485512,3.1621539)"
       x1="23.99999"
       y1="7.5555792"
       x2="23.99999"
       y2="40.444424" /><linearGradient
       xlink:href="#c"
       id="linearGradient121762"
       gradientUnits="userSpaceOnUse"
       gradientTransform="matrix(0.49691652,0,0,0.49380475,-3.9199061,-3.8636751)"
       x1="24.537001"
       y1="21.915001"
       x2="24.537001"
       y2="7.9130001" /><linearGradient
       xlink:href="#linearGradient121303"
       id="linearGradient121764"
       gradientUnits="userSpaceOnUse"
       gradientTransform="matrix(0.30606746,0,0,0.25986915,0.65850526,2.9870706)"
       x1="25.086039"
       y1="0.049753502"
       x2="25.086039"
       y2="18.299334" /><linearGradient
       xlink:href="#linearGradient855"
       id="linearGradient1703"
       gradientUnits="userSpaceOnUse"
       gradientTransform="matrix(0.40654575,0,0,0.43692415,13.600114,-4.6393908)"
       x1="-5.8870335"
       y1="11.482978"
       x2="-5.8870335"
       y2="22.148865" /><linearGradient
       id="linearGradient855"><stop
         id="stop851"
         offset="0"
         style="stop-color:#fafafa;stop-opacity:1" /><stop
         id="stop853"
         offset="1"
         style="stop-color:#d4d4d4;stop-opacity:1" /></linearGradient><defs
       id="defs75"><linearGradient
         id="linearGradient4"><stop
           id="stop1"
           style="stop-color:#ffffff;stop-opacity:1"
           offset="0" /><stop
           id="stop2"
           style="stop-color:#ffffff;stop-opacity:0.23529412"
           offset="0" /><stop
           id="stop3"
           style="stop-color:#ffffff;stop-opacity:0.15686275"
           offset="0.93896598" /><stop
           id="stop4"
           style="stop-color:#ffffff;stop-opacity:0.39215687"
           offset="1" /></linearGradient><linearGradient
         id="linearGradient6"><stop
           offset="0"
           id="stop5" /><stop
           offset="1"
           stop-opacity="0"
           id="stop6" /></linearGradient><linearGradient
         id="linearGradient10"><stop
           offset="0"
           stop-color="#fff"
           id="stop7" /><stop
           offset="0.28147671"
           stop-color="#fff"
           id="stop8" /><stop
           offset="0.42782003"
           stop-color="#fff"
           stop-opacity=".643"
           id="stop9" /><stop
           offset="1"
           stop-color="#fff"
           stop-opacity=".391"
           id="stop10" /></linearGradient><linearGradient
         id="linearGradient14"><stop
           offset="0"
           stop-opacity="0"
           id="stop11" /><stop
           offset=".5"
           id="stop12" /><stop
           offset="1"
           stop-opacity="0"
           id="stop14" /></linearGradient><linearGradient
         id="linearGradient19"><stop
           id="stop16"
           style="stop-color:#ffffff;stop-opacity:1"
           offset="0" /><stop
           id="stop17"
           style="stop-color:#ffffff;stop-opacity:0.23529412"
           offset="0" /><stop
           id="stop18"
           style="stop-color:#ffffff;stop-opacity:0.15686275"
           offset="1" /><stop
           id="stop19"
           style="stop-color:#ffffff;stop-opacity:0.39215687"
           offset="1" /></linearGradient><radialGradient
         cx="5"
         cy="41.5"
         fx="5"
         fy="41.5"
         gradientTransform="matrix(0.27196938,0,0,0.6,-5.2159268,-73.9)"
         gradientUnits="userSpaceOnUse"
         xlink:href="#g"
         id="radialGradient19"
         r="5" /><radialGradient
         cx="5"
         cy="41.5"
         fx="5"
         fy="41.5"
         gradientTransform="matrix(0.27196938,0,0,0.6,15.78458,-73.9)"
         gradientUnits="userSpaceOnUse"
         xlink:href="#g"
         id="radialGradient20"
         r="5" /><linearGradient
         xlink:href="#h"
         id="linearGradient20"
         gradientUnits="userSpaceOnUse"
         gradientTransform="matrix(0.5777446,0,0,0.54545625,-3.0769464,26.90875)"
         x1="17.554001"
         y1="46"
         x2="17.554001"
         y2="35" /><linearGradient
         xlink:href="#linearGradient855"
         id="linearGradient21"
         gradientUnits="userSpaceOnUse"
         gradientTransform="matrix(0.40654575,0,0,0.42658187,13.595313,-4.1863742)"
         x1="-5.8870335"
         y1="19.190628"
         x2="-5.8870335"
         y2="42.632786" /><linearGradient
         xlink:href="#linearGradient3924-2-2-5-8"
         id="linearGradient22"
         gradientUnits="userSpaceOnUse"
         gradientTransform="matrix(0.29729766,0,0,0.24324357,0.86485512,3.1621539)"
         x1="23.99999"
         y1="7.5555792"
         x2="23.99999"
         y2="40.444424" /><linearGradient
         xlink:href="#c"
         id="linearGradient23"
         gradientUnits="userSpaceOnUse"
         gradientTransform="matrix(0.49691652,0,0,0.49380475,-3.9199061,-3.8636751)"
         x1="24.537001"
         y1="21.915001"
         x2="24.537001"
         y2="7.9130001" /><linearGradient
         xlink:href="#linearGradient121303"
         id="linearGradient24"
         gradientUnits="userSpaceOnUse"
         gradientTransform="matrix(0.30606746,0,0,0.25986915,0.65850526,2.9870706)"
         x1="25.086039"
         y1="0.049753502"
         x2="25.086039"
         y2="18.299334" /><linearGradient
         xlink:href="#linearGradient855"
         id="linearGradient25"
         gradientUnits="userSpaceOnUse"
         gradientTransform="matrix(0.40654575,0,0,0.43692415,13.600114,-4.6393908)"
         x1="-5.8870335"
         y1="11.482978"
         x2="-5.8870335"
         y2="22.148865" /><linearGradient
         id="linearGradient26"><stop
           id="stop25"
           offset="0"
           style="stop-color:#fafafa;stop-opacity:1" /><stop
           id="stop26"
           offset="1"
           style="stop-color:#d4d4d4;stop-opacity:1" /></linearGradient></defs><stop
       id="stop31"
       style="stop-color:#ffffff;stop-opacity:1"
       offset="0" /><stop
       id="stop32"
       style="stop-color:#ffffff;stop-opacity:0.23529412"
       offset="0" /><stop
       id="stop33"
       style="stop-color:#ffffff;stop-opacity:0.15686275"
       offset="0.93896598" /><stop
       id="stop34"
       style="stop-color:#ffffff;stop-opacity:0.39215687"
       offset="1" /><stop
       offset="0"
       id="stop39" /><stop
       offset="1"
       stop-opacity="0"
       id="stop41" /><stop
       offset="0"
       stop-color="#fff"
       id="stop47" /><stop
       offset="0.28147671"
       stop-color="#fff"
       id="stop48" /><stop
       offset="0.42782003"
       stop-color="#fff"
       stop-opacity=".643"
       id="stop49" /><stop
       offset="1"
       stop-color="#fff"
       stop-opacity=".391"
       id="stop50" /><stop
       offset="0"
       stop-opacity="0"
       id="stop55" /><stop
       offset=".5"
       id="stop57" /><stop
       offset="1"
       stop-opacity="0"
       id="stop59" /><stop
       id="stop64"
       style="stop-color:#ffffff;stop-opacity:1"
       offset="0" /><stop
       id="stop65"
       style="stop-color:#ffffff;stop-opacity:0.23529412"
       offset="0" /><stop
       id="stop66"
       style="stop-color:#ffffff;stop-opacity:0.15686275"
       offset="1" /><stop
       id="stop67"
       style="stop-color:#ffffff;stop-opacity:0.39215687"
       offset="1" /><radialGradient
       cx="5"
       cy="41.5"
       fx="5"
       fy="41.5"
       gradientTransform="matrix(0.27196938,0,0,0.6,-5.2159268,-73.9)"
       gradientUnits="userSpaceOnUse"
       xlink:href="#g"
       id="radialGradient67"
       r="5" /><radialGradient
       cx="5"
       cy="41.5"
       fx="5"
       fy="41.5"
       gradientTransform="matrix(0.27196938,0,0,0.6,15.78458,-73.9)"
       gradientUnits="userSpaceOnUse"
       xlink:href="#g"
       id="radialGradient68"
       r="5" /><stop
       id="stop75"
       offset="0"
       style="stop-color:#fafafa;stop-opacity:1" /><stop
       id="stop76"
       offset="1"
       style="stop-color:#d4d4d4;stop-opacity:1" /><radialGradient
       cx="5"
       cy="41.5"
       fx="5"
       fy="41.5"
       gradientTransform="matrix(0.27196938,0,0,0.6,-5.2159268,-73.9)"
       gradientUnits="userSpaceOnUse"
       xlink:href="#g"
       id="radialGradient1"
       r="5" /><radialGradient
       cx="5"
       cy="41.5"
       fx="5"
       fy="41.5"
       gradientTransform="matrix(0.27196938,0,0,0.6,15.78458,-73.9)"
       gradientUnits="userSpaceOnUse"
       xlink:href="#g"
       id="radialGradient2"
       r="5" /></defs><metadata
     id="metadata3940"><rdf:RDF><cc:Work
         rdf:about=""><dc:format>image/svg+xml</dc:format><dc:type
           rdf:resource="http://purl.org/dc/dcmitype/StillImage" /></cc:Work></rdf:RDF></metadata><path
     style="color:#000000;clip-rule:nonzero;display:inline;overflow:visible;visibility:visible;opacity:1;isolation:auto;mix-blend-mode:normal;color-interpolation:sRGB;color-interpolation-filters:linearRGB;solid-color:#000000;solid-opacity:1;fill:url(#linearGradient4368);fill-opacity:1;fill-rule:nonzero;stroke:none;stroke-width:1;stroke-linecap:butt;stroke-linejoin:miter;stroke-miterlimit:4;stroke-dasharray:none;stroke-dashoffset:0;stroke-opacity:1;marker:none;color-rendering:auto;image-rendering:auto;shape-rendering:auto;text-rendering:auto;enable-background:accumulate"
     d="M 2,2.8679355 8,1.0422207 14,2.8679355 C 14,10.5 13.5,11.668324 8,14.84375 2.5,11.660245 2,10.5 2,2.8679355 Z"
     id="path4277" /><path
     id="path4306"
     d="M 2.5,3.2409828 8,1.553997 13.5,3.2416048 C 13.5,10.5 12.826432,11.690041 8,14.476583 3.3131609,11.763751 2.5,10.5 2.5,3.2409828 Z"
     style="color:#000000;clip-rule:nonzero;display:inline;overflow:visible;visibility:visible;opacity:0.7;isolation:auto;mix-blend-mode:normal;color-interpolation:sRGB;color-interpolation-filters:linearRGB;solid-color:#000000;solid-opacity:1;fill:none;fill-opacity:1;fill-rule:nonzero;stroke:url(#linearGradient4335);stroke-width:1;stroke-linecap:round;stroke-linejoin:miter;stroke-miterlimit:4.0999999;stroke-dasharray:none;stroke-dashoffset:0;stroke-opacity:1;marker:none;color-rendering:auto;image-rendering:auto;shape-rendering:auto;text-rendering:auto;enable-background:accumulate" /><path
     id="path8117"
     d="M 1.5,2.5 8,0.5219414 14.5,2.5 C 14.5,10.719422 14.059809,11.914349 8,15.421882 1.9401908,11.914349 1.5,10.719422 1.5,2.5 Z"
     style="opacity:0.5;fill:none;fill-opacity:1;stroke:#555761;stroke-width:1;stroke-linecap:round;stroke-linejoin:miter;stroke-opacity:1" /><path
     style="color:#000000;font-style:normal;font-variant:normal;font-weight:normal;font-stretch:normal;font-size:medium;line-height:normal;font-family:sans-serif;text-indent:0;text-align:start;text-decoration:none;text-decoration-line:none;text-decoration-style:solid;text-decoration-color:#000000;letter-spacing:normal;word-spacing:normal;text-transform:none;direction:ltr;block-progression:tb;writing-mode:lr-tb;baseline-shift:baseline;text-anchor:start;white-space:normal;clip-rule:nonzero;display:inline;overflow:visible;visibility:visible;opacity:1;isolation:auto;mix-blend-mode:normal;color-interpolation:sRGB;color-interpolation-filters:linearRGB;solid-color:#000000;solid-opacity:1;fill:url(#linearGradient4304);fill-opacity:1.0;fill-rule:nonzero;stroke:none;stroke-width:1;stroke-linecap:butt;stroke-linejoin:miter;stroke-miterlimit:4;stroke-dasharray:none;stroke-dashoffset:0;stroke-opacity:1;marker:none;color-rendering:auto;image-rendering:auto;shape-rendering:auto;text-rendering:auto;enable-background:accumulate"
     d="M 8,1.972656 3,3.6386718 C 3,9.7769988 3.5,11.401924 8,14 12.5,11.433594 13,9.7502518 13,3.6386718 Z"
     id="path4216" /><path
     style="color:#000000;clip-rule:nonzero;display:inline;overflow:visible;visibility:visible;opacity:0.5;isolation:auto;mix-blend-mode:normal;color-interpolation:sRGB;color-interpolation-filters:linearRGB;solid-color:#000000;solid-opacity:1;fill:none;fill-opacity:1;fill-rule:nonzero;stroke:#555761;stroke-width:1;stroke-linecap:round;stroke-linejoin:miter;stroke-miterlimit:4;stroke-dasharray:none;stroke-dashoffset:0;stroke-opacity:1;color-rendering:auto;image-rendering:auto;shape-rendering:auto;text-rendering:auto;enable-background:accumulate"
     d="M 3.5,3.9999998 7.9997208,2.5 12.50045,3.9999998 c 0,6.0714312 -0.936135,7.3602322 -4.5001709,9.4218752 C 4.4351271,11.359587 3.5,10.071431 3.5,3.9999998 Z"
     id="path8128" /><path
     id="path4337"
     d="M 4.5,4.7109378 7.9997208,3.5546878 11.5,4.7187498 c 0,4.78125 -0.906052,6.0466732 -3.4997209,7.5470002 C 5.4138022,10.769584 4.5,9.4999998 4.5,4.7109378 Z"
     style="color:#000000;clip-rule:nonzero;display:inline;overflow:visible;visibility:visible;opacity:0.15;isolation:auto;mix-blend-mode:normal;color-interpolation:sRGB;color-interpolation-filters:linearRGB;solid-color:#000000;solid-opacity:1;fill:none;fill-opacity:0;fill-rule:nonzero;stroke:url(#linearGradient4362);stroke-width:1;stroke-linecap:round;stroke-linejoin:miter;stroke-miterlimit:4;stroke-dasharray:none;stroke-dashoffset:0;stroke-opacity:1;marker:none;color-rendering:auto;image-rendering:auto;shape-rendering:auto;text-rendering:auto;enable-background:accumulate" /><path
     id="path4364"
     d="M 2,2.8679355 8,1.0422207 C 8,6.4999998 8,8.9999998 8,14.84375 2.5,11.660245 2,10.5 2,2.8679355 Z"
     style="color:#000000;clip-rule:nonzero;display:inline;overflow:visible;visibility:visible;opacity:0.2;isolation:auto;mix-blend-mode:normal;color-interpolation:sRGB;color-interpolation-filters:linearRGB;solid-color:#000000;solid-opacity:1;fill:#ffffff;fill-opacity:1;fill-rule:nonzero;stroke:none;stroke-width:1;stroke-linecap:butt;stroke-linejoin:miter;stroke-miterlimit:4;stroke-dasharray:none;stroke-dashoffset:0;stroke-opacity:1;marker:none;color-rendering:auto;image-rendering:auto;shape-rendering:auto;text-rendering:auto;enable-background:accumulate" /><g
     id="g2"
     transform="translate(-6,-6.499999)"><path
       d="m 15.765948,14.087641 c 0.0058,0.154537 -0.04509,0.22963 -0.09108,0.362419 l -0.08271,0.04113 c -0.06761,0.131381 0.0068,0.08341 -0.0417,0.187861 -0.105668,0.09384 -0.320201,0.29353 -0.388899,0.311823 -0.05021,-10e-4 0.03397,-0.05923 0.04496,-0.08194 -0.141296,0.09697 -0.113408,0.145581 -0.329541,0.20462 l -0.0063,-0.01413 c -0.532824,0.250737 -1.273011,-0.246069 -1.263288,-0.923827 -0.0056,0.04298 -0.01618,0.03224 -0.02795,0.04951 -0.0275,-0.348667 0.16106,-0.698867 0.479087,-0.842082 0.311056,-0.153896 0.675712,-0.09083 0.898369,0.11699 -0.122298,-0.160293 -0.365936,-0.330244 -0.654476,-0.31451 -0.282783,0.0046 -0.5474,0.18428 -0.63567,0.379433 -0.144814,0.09115 -0.1617,0.351543 -0.224768,0.39926 -0.08501,0.624286 0.159717,0.893892 0.573753,1.211214 0.06499,0.04388 0.01829,0.0506 0.027,0.08399 -0.137522,-0.06435 -0.263401,-0.161573 -0.367023,-0.280609 0.05501,0.0804 0.114303,0.158566 0.190995,0.219971 -0.129781,-0.04381 -0.303059,-0.314253 -0.353526,-0.325256 0.223553,0.400285 0.906876,0.702002 1.26488,0.552263 -0.165665,0.0061 -0.376042,0.0035 -0.562049,-0.06537 -0.07835,-0.04024 -0.18447,-0.123448 -0.165473,-0.138992 0.488426,0.182362 0.992843,0.138034 1.415387,-0.200653 0.107587,-0.08379 0.225024,-0.226239 0.258989,-0.228158 -0.05111,0.07688 0.0088,0.03698 -0.0305,0.104836 0.106946,-0.172766 -0.04662,-0.07036 0.110656,-0.298326 l 0.05807,0.07996 c -0.02175,-0.143535 0.17814,-0.317644 0.157798,-0.544459 0.04586,-0.06934 0.05111,0.07471 0.0025,0.234235 0.06748,-0.176987 0.01785,-0.205451 0.03511,-0.351544 0.0186,0.04912 0.04336,0.101255 0.05596,0.153129 -0.044,-0.171103 0.04496,-0.288028 0.0671,-0.387492 -0.02189,-0.0096 -0.06787,0.07561 -0.07848,-0.126391 0.0016,-0.08776 0.02449,-0.04599 0.03327,-0.06761 -0.01714,-0.0099 -0.06236,-0.07721 -0.0898,-0.20622 0.01977,-0.03038 0.05322,0.07861 0.08034,0.08303 -0.01752,-0.102537 -0.04752,-0.180765 -0.04881,-0.259504 -0.07931,-0.165666 -0.02807,0.02213 -0.0923,-0.07113 -0.08443,-0.263146 0.06998,-0.06108 0.08047,-0.180569 0.127798,0.185174 0.200651,0.472371 0.234235,0.591279 -0.02559,-0.145009 -0.06685,-0.285537 -0.117316,-0.421459 0.03896,0.01644 -0.06262,-0.298262 0.0506,-0.08987 -0.120828,-0.444228 -0.5167,-0.859351 -0.880972,-1.054057 0.04445,0.04074 0.100678,0.09192 0.08059,0.09997 -0.18123,-0.107778 -0.149377,-0.116285 -0.175346,-0.161828 -0.147436,-0.06006 -0.157287,0.005 -0.25483,1.28e-4 -0.278208,-0.147629 -0.33181,-0.131957 -0.587856,-0.224321 l 0.01165,0.0545 c -0.184279,-0.0614 -0.214726,0.02316 -0.413844,1.28e-4 -0.01209,-0.0094 0.06384,-0.03429 0.126392,-0.0433 -0.178203,0.02354 -0.169888,-0.03518 -0.344253,0.0065 0.04292,-0.03013 0.08846,-0.05015 0.13426,-0.07573 -0.145261,0.0088 -0.346938,0.08456 -0.284703,0.0156 -0.236986,0.105796 -0.657931,0.254256 -0.894149,0.475761 l -0.0074,-0.04963 c -0.108228,0.129911 -0.471989,0.388003 -0.500964,0.55642 l -0.02898,0.0067 c -0.05622,0.09537 -0.09275,0.203404 -0.137394,0.301461 -0.07362,0.125561 -0.10797,0.04836 -0.09748,0.06806 -0.144877,0.293721 -0.216964,0.540492 -0.279073,0.743001 0.04426,0.0662 0.0011,0.398622 0.01778,0.664647 -0.07266,1.314067 0.922228,2.589823 2.009738,2.88431 0.159397,0.05711 0.396382,0.05507 0.597995,0.0607 -0.237816,-0.06806 -0.268518,-0.03601 -0.500322,-0.116799 -0.167136,-0.0788 -0.203724,-0.168671 -0.322184,-0.27146 l 0.04688,0.08283 c -0.232175,-0.08219 -0.135015,-0.101704 -0.323962,-0.16151 l 0.05008,-0.0653 c -0.07529,-0.0058 -0.199375,-0.126779 -0.233276,-0.194005 l -0.08239,0.0033 c -0.09889,-0.12194 -0.151658,-0.21002 -0.147756,-0.278267 l -0.02661,0.04747 c -0.03012,-0.05173 -0.364016,-0.457839 -0.190803,-0.3633 -0.03217,-0.0293 -0.07497,-0.04778 -0.121339,-0.132148 l 0.03524,-0.04022 c -0.08322,-0.107277 -0.153386,-0.244734 -0.148013,-0.290531 0.04445,0.06 0.07528,0.07126 0.10586,0.08155 -0.210504,-0.5222 -0.222337,-0.02872 -0.381671,-0.531539 l 0.03364,-0.0027 c -0.02578,-0.03907 -0.04158,-0.08122 -0.0623,-0.122735 l 0.01471,-0.146157 c -0.151467,-0.175008 -0.04235,-0.744859 -0.02041,-1.057322 0.01503,-0.127031 0.126456,-0.262314 0.21108,-0.474481 l -0.05156,-0.0088 c 0.09863,-0.171935 0.563007,-0.690743 0.778181,-0.664135 0.104197,-0.130869 -0.02072,-5.37e-4 -0.04113,-0.03339 0.228926,-0.236857 0.300885,-0.167329 0.455357,-0.209993 0.166497,-0.09882 -0.142959,0.03863 -0.06403,-0.03767 0.288028,-0.07349 0.204043,-0.167202 0.579702,-0.204492 0.03966,0.02252 -0.09192,0.0348 -0.124921,0.06403 0.239863,-0.117437 0.759183,-0.09064 1.096657,0.06512 0.391264,0.182999 0.831142,0.723683 0.848541,1.232386 l 0.01977,0.0053 c -0.01,0.202252 0.03096,0.436167 -0.04011,0.650957 l 0.04804,-0.101766"
       id="path3032"
       style="fill:#7a0000;fill-opacity:1;stroke-width:0.575138" /></g></svg>
