<?xml version="1.0" encoding="UTF-8" standalone="no"?>
<svg
   id="svg3489"
   height="32"
   width="32"
   version="1.1"
   sodipodi:docname="32.svg"
   xml:space="preserve"
   inkscape:version="1.4.2 (f4327f4, 2025-05-13)"
   xmlns:inkscape="http://www.inkscape.org/namespaces/inkscape"
   xmlns:sodipodi="http://sodipodi.sourceforge.net/DTD/sodipodi-0.dtd"
   xmlns:xlink="http://www.w3.org/1999/xlink"
   xmlns="http://www.w3.org/2000/svg"
   xmlns:svg="http://www.w3.org/2000/svg"
   xmlns:rdf="http://www.w3.org/1999/02/22-rdf-syntax-ns#"
   xmlns:cc="http://creativecommons.org/ns#"
   xmlns:dc="http://purl.org/dc/elements/1.1/"><sodipodi:namedview
     id="namedview1"
     pagecolor="#ffffff"
     bordercolor="#000000"
     borderopacity="0.25"
     inkscape:showpageshadow="2"
     inkscape:pageopacity="0.0"
     inkscape:pagecheckerboard="0"
     inkscape:deskcolor="#d1d1d1"
     inkscape:zoom="13.828125"
     inkscape:cx="14.535593"
     inkscape:cy="22.743503"
     inkscape:window-width="1920"
     inkscape:window-height="1129"
     inkscape:window-x="1912"
     inkscape:window-y="-8"
     inkscape:window-maximized="1"
     inkscape:current-layer="g3" /><defs
     id="defs3491"><linearGradient
       id="linearGradient4330"><stop
         id="stop4332"
         offset="0"
         style="stop-color:#ffffff;stop-opacity:1;" /><stop
         id="stop4334"
         offset="1"
         style="stop-color:#ffffff;stop-opacity:0;" /></linearGradient><linearGradient
       id="linearGradient4320"><stop
         offset="0"
         style="stop-color:#ffffff;stop-opacity:1"
         id="stop4322" /><stop
         offset="0.00641762"
         style="stop-color:#ffffff;stop-opacity:0.23529412"
         id="stop4324" /><stop
         offset="0.79602259"
         style="stop-color:#ffffff;stop-opacity:0.15686275"
         id="stop4326" /><stop
         offset="1"
         style="stop-color:#ffffff;stop-opacity:0.39215687"
         id="stop4328" /></linearGradient><linearGradient
       id="linearGradient23419"><stop
         offset="0"
         style="stop-color:#000000;stop-opacity:1"
         id="stop23421" /><stop
         offset="1"
         style="stop-color:#000000;stop-opacity:0"
         id="stop23423" /></linearGradient><radialGradient
       r="62.769119"
       fy="185.29727"
       fx="99.189415"
       cy="185.29727"
       cx="99.189415"
       gradientTransform="matrix(0.3823536,7.5555777e-8,-1.8372241e-8,0.1115198,-5.9254271,36.335849)"
       gradientUnits="userSpaceOnUse"
       id="radialGradient3300-9"
       xlink:href="#linearGradient23419" /><radialGradient
       r="62.769119"
       fy="185.29727"
       fx="99.189415"
       cy="185.29727"
       cx="99.189415"
       gradientTransform="matrix(0.2549024,5.3967361e-8,-1.2248161e-8,0.07965545,6.7163816,44.240666)"
       gradientUnits="userSpaceOnUse"
       id="radialGradient4192"
       xlink:href="#linearGradient23419" /><linearGradient
       id="linearGradient2793-2-0-669-94-2"><stop
         id="stop4681-3-1"
         style="stop-color:#b4b4b4;stop-opacity:1"
         offset="0" /><stop
         id="stop4683-67-4"
         style="stop-color:#ffffff;stop-opacity:1"
         offset="1" /></linearGradient><linearGradient
       gradientTransform="matrix(0.49993019,0,0,0.5,0.00270542,-0.50000112)"
       y2="55.547421"
       x2="34.570312"
       y1="8.6998949"
       x1="34.570312"
       gradientUnits="userSpaceOnUse"
       id="linearGradient4260"
       xlink:href="#linearGradient5362" /><linearGradient
       y2="40.216984"
       x2="47.381065"
       y1="18.935593"
       x1="47.381065"
       gradientTransform="matrix(1.1387416,0,0,1.1471933,-27.038994,-16.44272)"
       gradientUnits="userSpaceOnUse"
       id="linearGradient4318"
       xlink:href="#linearGradient4320" /><linearGradient
       gradientTransform="matrix(0.48978112,0,0,0.49152542,0.32700383,-0.15201271)"
       gradientUnits="userSpaceOnUse"
       y2="29.055845"
       x2="7.751708"
       y1="29.055845"
       x1="32.006893"
       id="linearGradient4336"
       xlink:href="#linearGradient4330" /><linearGradient
       gradientTransform="matrix(0.45983921,0,0,0.46638406,1.2851458,0.58324131)"
       y2="64.025787"
       x2="51.117477"
       y1="9.1919775"
       x1="51.117477"
       gradientUnits="userSpaceOnUse"
       id="linearGradient4378"
       xlink:href="#linearGradient5668" /><linearGradient
       y2="-6.9857993"
       x2="-113.56437"
       y1="-6.9857993"
       x1="56.410355"
       spreadMethod="reflect"
       gradientTransform="matrix(0.08921681,0,0,0.07809922,14.080919,1.3632038)"
       gradientUnits="userSpaceOnUse"
       id="linearGradient4663-2"
       xlink:href="#linearGradient2793-2-0-669-94-2" /><linearGradient
       id="linearGradient5362"><stop
         id="stop5364"
         offset="0"
         style="stop-color:#ffe16b;stop-opacity:1" /><stop
         id="stop5366"
         offset="1"
         style="stop-color:#f9c440;stop-opacity:1" /></linearGradient><linearGradient
       id="linearGradient5668"><stop
         id="stop5670"
         offset="0"
         style="stop-color:#ad5f00;stop-opacity:1" /><stop
         id="stop5672"
         offset="1"
         style="stop-color:#ad5f00;stop-opacity:0" /></linearGradient><linearGradient
       xlink:href="#linearGradient121303"
       id="linearGradient121764"
       gradientUnits="userSpaceOnUse"
       gradientTransform="matrix(1.0059184,0,0,0.85710999,-0.12782287,8.1064751)"
       x1="25.086039"
       y1="-1.3623691"
       x2="25.086039"
       y2="18.299334" /><linearGradient
       id="linearGradient121303"><stop
         id="stop121295"
         style="stop-color:#ffffff;stop-opacity:1"
         offset="0" /><stop
         id="stop121297"
         style="stop-color:#ffffff;stop-opacity:0.23529412"
         offset="0.11419468" /><stop
         id="stop121299"
         style="stop-color:#ffffff;stop-opacity:0.15686275"
         offset="0.93896598" /><stop
         id="stop121301"
         style="stop-color:#ffffff;stop-opacity:0.39215687"
         offset="1" /></linearGradient><linearGradient
       xlink:href="#linearGradient3924-2-2-5-8"
       id="linearGradient121760"
       gradientUnits="userSpaceOnUse"
       gradientTransform="matrix(1.0000003,0,0,0.83783813,-1.248146e-5,7.8918853)"
       x1="23.99999"
       y1="6.0445275"
       x2="23.99999"
       y2="41.763222" /><linearGradient
       id="linearGradient3924-2-2-5-8"><stop
         id="stop3926-9-4-9-6"
         style="stop-color:#ffffff;stop-opacity:1"
         offset="0" /><stop
         id="stop3928-9-8-6-5"
         style="stop-color:#ffffff;stop-opacity:0.23529412"
         offset="0.09302325" /><stop
         id="stop3930-3-5-1-7"
         style="stop-color:#ffffff;stop-opacity:0.15686275"
         offset="0.9069767" /><stop
         id="stop3932-8-0-4-8"
         style="stop-color:#ffffff;stop-opacity:0.39215687"
         offset="1" /></linearGradient><linearGradient
       xlink:href="#d"
       id="linearGradient121758"
       gradientUnits="userSpaceOnUse"
       gradientTransform="matrix(1.2122903,0,0,1.1145514,-4.499903,-2.7612533)"
       x1="23.452"
       y1="30.555"
       x2="43.007"
       y2="45.933998" /><linearGradient
       id="d"><stop
         offset="0"
         stop-color="#fff"
         stop-opacity="0"
         id="stop65" /><stop
         offset="1"
         stop-color="#fff"
         stop-opacity="0"
         id="stop67" /></linearGradient><linearGradient
       xlink:href="#linearGradient855"
       id="linearGradient121756"
       gradientUnits="userSpaceOnUse"
       gradientTransform="matrix(1.2196365,0,0,1.3203708,40.785915,-13.338744)"
       x1="-5.8870335"
       y1="19.341915"
       x2="-5.8870335"
       y2="43.375748" /><linearGradient
       xlink:href="#linearGradient855"
       id="linearGradient1703"
       gradientUnits="userSpaceOnUse"
       gradientTransform="matrix(1.2196365,0,0,1.3154165,40.800338,-12.983422)"
       x1="-5.8870335"
       y1="11.482978"
       x2="-5.8870335"
       y2="22.148865" /><radialGradient
       cx="5"
       cy="41.5"
       fx="5"
       fy="41.5"
       gradientTransform="matrix(1.0028871,0,0,1.6,-18.167138,-111.98289)"
       gradientUnits="userSpaceOnUse"
       xlink:href="#linearGradient23419"
       id="k-0-7-3-9-3"
       r="5" /><linearGradient
       xlink:href="#h"
       id="linearGradient121754"
       gradientUnits="userSpaceOnUse"
       gradientTransform="matrix(2.1304332,0,0,1.45455,-87.719018,-13.32711)"
       x1="17.554001"
       y1="46"
       x2="17.554001"
       y2="35" /><linearGradient
       id="h"><stop
         offset="0"
         stop-opacity="0"
         id="stop54" /><stop
         offset=".5"
         id="stop56" /><stop
         offset="1"
         stop-opacity="0"
         id="stop58" /></linearGradient><radialGradient
       cx="5"
       cy="41.5"
       fx="5"
       fy="41.5"
       gradientTransform="matrix(1.0028871,0,0,1.6,57.139048,-111.98289)"
       gradientUnits="userSpaceOnUse"
       xlink:href="#linearGradient23419"
       id="i-6-9-7-8-9"
       r="5" /><linearGradient
       gradientUnits="userSpaceOnUse"
       xlink:href="#c-3"
       id="n"
       x1="26"
       x2="26"
       y1="22"
       y2="8"
       gradientTransform="translate(0,-3)" /><linearGradient
       id="c-3"><stop
         offset="0"
         stop-color="#fff"
         id="stop36-6" /><stop
         offset="0.42818305"
         stop-color="#fff"
         id="stop38-7" /><stop
         offset="0.50093317"
         stop-color="#fff"
         stop-opacity=".643"
         id="stop40-5" /><stop
         offset="1"
         stop-color="#fff"
         stop-opacity=".391"
         id="stop42-3" /></linearGradient><linearGradient
       id="linearGradient855"><stop
         id="stop851"
         offset="0"
         style="stop-color:#fafafa;stop-opacity:1" /><stop
         id="stop853"
         offset="1"
         style="stop-color:#d4d4d4;stop-opacity:1" /></linearGradient><defs
       id="defs6651"><linearGradient
         xlink:href="#linearGradient121303"
         id="linearGradient1"
         gradientUnits="userSpaceOnUse"
         gradientTransform="matrix(1.0059184,0,0,0.85710999,-0.12782287,8.1064751)"
         x1="25.086039"
         y1="-1.3623691"
         x2="25.086039"
         y2="18.299334" /><linearGradient
         id="linearGradient4"><stop
           id="stop1"
           style="stop-color:#ffffff;stop-opacity:1"
           offset="0" /><stop
           id="stop2"
           style="stop-color:#ffffff;stop-opacity:0.23529412"
           offset="0.11419468" /><stop
           id="stop3"
           style="stop-color:#ffffff;stop-opacity:0.15686275"
           offset="0.93896598" /><stop
           id="stop4"
           style="stop-color:#ffffff;stop-opacity:0.39215687"
           offset="1" /></linearGradient><linearGradient
         xlink:href="#linearGradient3924-2-2-5-8"
         id="linearGradient5"
         gradientUnits="userSpaceOnUse"
         gradientTransform="matrix(1.0000003,0,0,0.83783813,-1.248146e-5,7.8918853)"
         x1="23.99999"
         y1="6.0445275"
         x2="23.99999"
         y2="41.763222" /><linearGradient
         id="linearGradient8"><stop
           id="stop5"
           style="stop-color:#ffffff;stop-opacity:1"
           offset="0" /><stop
           id="stop6"
           style="stop-color:#ffffff;stop-opacity:0.23529412"
           offset="0.09302325" /><stop
           id="stop7"
           style="stop-color:#ffffff;stop-opacity:0.15686275"
           offset="0.9069767" /><stop
           id="stop8"
           style="stop-color:#ffffff;stop-opacity:0.39215687"
           offset="1" /></linearGradient><linearGradient
         xlink:href="#d"
         id="linearGradient9"
         gradientUnits="userSpaceOnUse"
         gradientTransform="matrix(1.2122903,0,0,1.1145514,-4.499903,-2.7612533)"
         x1="23.452"
         y1="30.555"
         x2="43.007"
         y2="45.933998" /><linearGradient
         id="linearGradient10"><stop
           offset="0"
           stop-color="#fff"
           stop-opacity="0"
           id="stop9" /><stop
           offset="1"
           stop-color="#fff"
           stop-opacity="0"
           id="stop10" /></linearGradient><linearGradient
         xlink:href="#linearGradient855"
         id="linearGradient11"
         gradientUnits="userSpaceOnUse"
         gradientTransform="matrix(1.2196365,0,0,1.3203708,40.785915,-13.338744)"
         x1="-5.8870335"
         y1="19.341915"
         x2="-5.8870335"
         y2="43.375748" /><linearGradient
         xlink:href="#linearGradient855"
         id="linearGradient12"
         gradientUnits="userSpaceOnUse"
         gradientTransform="matrix(1.2196365,0,0,1.3154165,40.800338,-12.983422)"
         x1="-5.8870335"
         y1="11.482978"
         x2="-5.8870335"
         y2="22.148865" /><radialGradient
         cx="5"
         cy="41.5"
         fx="5"
         fy="41.5"
         gradientTransform="matrix(1.0028871,0,0,1.6,-18.167138,-111.98289)"
         gradientUnits="userSpaceOnUse"
         xlink:href="#linearGradient23419"
         id="radialGradient12"
         r="5" /><linearGradient
         id="linearGradient14"><stop
           offset="0"
           id="stop12" /><stop
           offset="1"
           stop-opacity="0"
           id="stop14" /></linearGradient><linearGradient
         xlink:href="#h"
         id="linearGradient15"
         gradientUnits="userSpaceOnUse"
         gradientTransform="matrix(2.1304332,0,0,1.45455,-87.719018,-13.32711)"
         x1="17.554001"
         y1="46"
         x2="17.554001"
         y2="35" /><linearGradient
         id="linearGradient18"><stop
           offset="0"
           stop-opacity="0"
           id="stop16" /><stop
           offset=".5"
           id="stop17" /><stop
           offset="1"
           stop-opacity="0"
           id="stop18" /></linearGradient><radialGradient
         cx="5"
         cy="41.5"
         fx="5"
         fy="41.5"
         gradientTransform="matrix(1.0028871,0,0,1.6,57.139048,-111.98289)"
         gradientUnits="userSpaceOnUse"
         xlink:href="#linearGradient23419"
         id="radialGradient18"
         r="5" /><linearGradient
         gradientUnits="userSpaceOnUse"
         xlink:href="#c-3"
         id="linearGradient19"
         x1="26"
         x2="26"
         y1="22"
         y2="8"
         gradientTransform="translate(0,-3)" /><linearGradient
         id="linearGradient22"><stop
           offset="0"
           stop-color="#fff"
           id="stop19" /><stop
           offset="0.42818305"
           stop-color="#fff"
           id="stop20" /><stop
           offset="0.50093317"
           stop-color="#fff"
           stop-opacity=".643"
           id="stop21" /><stop
           offset="1"
           stop-color="#fff"
           stop-opacity=".391"
           id="stop22" /></linearGradient><linearGradient
         id="linearGradient24"><stop
           id="stop23"
           offset="0"
           style="stop-color:#fafafa;stop-opacity:1" /><stop
           id="stop24"
           offset="1"
           style="stop-color:#d4d4d4;stop-opacity:1" /></linearGradient></defs><stop
       id="stop29"
       style="stop-color:#ffffff;stop-opacity:1"
       offset="0" /><stop
       id="stop30"
       style="stop-color:#ffffff;stop-opacity:0.23529412"
       offset="0.11419468" /><stop
       id="stop31"
       style="stop-color:#ffffff;stop-opacity:0.15686275"
       offset="0.93896598" /><stop
       id="stop32"
       style="stop-color:#ffffff;stop-opacity:0.39215687"
       offset="1" /><stop
       id="stop37"
       style="stop-color:#ffffff;stop-opacity:1"
       offset="0" /><stop
       id="stop38"
       style="stop-color:#ffffff;stop-opacity:0.23529412"
       offset="0.09302325" /><stop
       id="stop39"
       style="stop-color:#ffffff;stop-opacity:0.15686275"
       offset="0.9069767" /><stop
       id="stop40"
       style="stop-color:#ffffff;stop-opacity:0.39215687"
       offset="1" /><stop
       offset="0"
       stop-color="#fff"
       stop-opacity="0"
       id="stop43" /><stop
       offset="1"
       stop-color="#fff"
       stop-opacity="0"
       id="stop44" /><radialGradient
       cx="5"
       cy="41.5"
       fx="5"
       fy="41.5"
       gradientTransform="matrix(1.0028871,0,0,1.6,-18.167138,-111.98289)"
       gradientUnits="userSpaceOnUse"
       xlink:href="#linearGradient23419"
       id="radialGradient45"
       r="5" /><stop
       offset="0"
       id="stop47" /><stop
       offset="1"
       stop-opacity="0"
       id="stop48" /><stop
       offset="0"
       stop-opacity="0"
       id="stop52" /><stop
       offset=".5"
       id="stop53" /><stop
       offset="1"
       stop-opacity="0"
       id="stop55" /><radialGradient
       cx="5"
       cy="41.5"
       fx="5"
       fy="41.5"
       gradientTransform="matrix(1.0028871,0,0,1.6,57.139048,-111.98289)"
       gradientUnits="userSpaceOnUse"
       xlink:href="#linearGradient23419"
       id="radialGradient55"
       r="5" /><stop
       offset="0"
       stop-color="#fff"
       id="stop62" /><stop
       offset="0.42818305"
       stop-color="#fff"
       id="stop63" /><stop
       offset="0.50093317"
       stop-color="#fff"
       stop-opacity=".643"
       id="stop64" /><stop
       offset="1"
       stop-color="#fff"
       stop-opacity=".391"
       id="stop66" /><stop
       id="stop70"
       offset="0"
       style="stop-color:#fafafa;stop-opacity:1" /><stop
       id="stop71"
       offset="1"
       style="stop-color:#d4d4d4;stop-opacity:1" /><radialGradient
       cx="5"
       cy="41.5"
       fx="5"
       fy="41.5"
       gradientTransform="matrix(1.0028871,0,0,1.6,-18.167138,-111.98289)"
       gradientUnits="userSpaceOnUse"
       xlink:href="#linearGradient23419"
       id="radialGradient1"
       r="5" /><radialGradient
       cx="5"
       cy="41.5"
       fx="5"
       fy="41.5"
       gradientTransform="matrix(1.0028871,0,0,1.6,57.139048,-111.98289)"
       gradientUnits="userSpaceOnUse"
       xlink:href="#linearGradient23419"
       id="radialGradient2"
       r="5" /></defs><metadata
     id="metadata3494"><rdf:RDF><cc:Work
         rdf:about=""><dc:format>image/svg+xml</dc:format><dc:type
           rdf:resource="http://purl.org/dc/dcmitype/StillImage" /></cc:Work></rdf:RDF></metadata><g
     id="g4198"
     transform="matrix(0.5,0,0,0.5,7.75e-7,-9.16e-4)"><path
       style="opacity:0.2;fill:url(#radialGradient3300-9);fill-opacity:1;stroke:none"
       id="path3818-0"
       d="m 55.999998,57.0017 a 24,6.9985714 0 1 1 -47.9999991,0 24,6.9985714 0 1 1 47.9999991,0 z" /><path
       d="m 47.999998,59.0017 a 16,4.9988822 0 1 1 -31.999999,0 16,4.9988822 0 1 1 31.999999,0 z"
       id="path4190"
       style="opacity:0.4;fill:url(#radialGradient4192);fill-opacity:1;stroke:none" /></g><path
     d="M 16,1 4.0001876,4.925452 c -6.897e-4,8.26343 -0.037482,12.79351 1.4155931,16.072726 C 6.8695275,24.27891 9.8528691,26.438084 16,30 c 6.14713,-3.561916 9.130473,-5.72109 10.58422,-9.001822 1.453074,-3.279216 1.416282,-7.809296 1.415592,-16.072726 L 16,1 Z"
     id="path4417"
     style="color:#000000;clip-rule:nonzero;display:inline;overflow:visible;visibility:visible;opacity:1;isolation:auto;mix-blend-mode:normal;color-interpolation:sRGB;color-interpolation-filters:linearRGB;solid-color:#000000;solid-opacity:1;fill:url(#linearGradient4663-2);fill-opacity:1;fill-rule:nonzero;stroke:none;stroke-width:1;stroke-linecap:butt;stroke-linejoin:miter;stroke-miterlimit:4;stroke-dasharray:none;stroke-dashoffset:0;stroke-opacity:1;marker:none;color-rendering:auto;image-rendering:auto;shape-rendering:auto;text-rendering:auto;enable-background:accumulate" /><path
     id="path8119"
     d="m 6.0018677,6.9999988 9.9986043,-3.5 9.998603,3.5 c 0,13.4742122 0.301775,14.5467162 -9.998603,20.5000002 C 5.6144148,21.502769 6.0018677,20.469294 6.0018677,6.9999988 Z"
     style="color:#000000;clip-rule:nonzero;display:inline;overflow:visible;visibility:visible;opacity:1;isolation:auto;mix-blend-mode:normal;color-interpolation:sRGB;color-interpolation-filters:linearRGB;solid-color:#000000;solid-opacity:1;fill:url(#linearGradient4260);fill-opacity:1.0;fill-rule:nonzero;stroke:none;stroke-width:1;stroke-linecap:butt;stroke-linejoin:miter;stroke-miterlimit:4;stroke-dasharray:none;stroke-dashoffset:0;stroke-opacity:1;marker:none;color-rendering:auto;image-rendering:auto;shape-rendering:auto;text-rendering:auto;enable-background:accumulate" /><path
     id="path8169"
     d="M 4.0003622,4.9322034 16,1 c 0,11.550847 0,19.415254 0,29 C 3.7554717,22.905442 4.0003622,21.398305 4.0003622,4.9322034 Z"
     style="color:#000000;clip-rule:nonzero;display:inline;overflow:visible;visibility:visible;opacity:0.2;isolation:auto;mix-blend-mode:normal;color-interpolation:sRGB;color-interpolation-filters:linearRGB;solid-color:#000000;solid-opacity:1;fill:url(#linearGradient4336);fill-opacity:1;fill-rule:nonzero;stroke:none;stroke-width:1;stroke-linecap:butt;stroke-linejoin:miter;stroke-miterlimit:4;stroke-dasharray:none;stroke-dashoffset:0;stroke-opacity:1;marker:none;color-rendering:auto;image-rendering:auto;shape-rendering:auto;text-rendering:auto;enable-background:accumulate" /><path
     id="path8117"
     d="M 3.5000234,4.5677954 15.999999,0.49999737 28.499975,4.5677954 c 0,17.0339056 0,18.7397966 -12.499976,25.9322126 C 3.5000234,23.307592 3.5000234,21.601701 3.5000234,4.5677954 Z"
     style="color:#000000;clip-rule:nonzero;display:inline;overflow:visible;visibility:visible;opacity:0.5;isolation:auto;mix-blend-mode:normal;color-interpolation:sRGB;color-interpolation-filters:linearRGB;solid-color:#000000;solid-opacity:1;fill:none;fill-opacity:1;fill-rule:nonzero;stroke:#555761;stroke-width:1;stroke-linecap:round;stroke-linejoin:round;stroke-miterlimit:4;stroke-dasharray:none;stroke-dashoffset:0;stroke-opacity:1;color-rendering:auto;image-rendering:auto;shape-rendering:auto;text-rendering:auto;enable-background:accumulate" /><path
     style="opacity:0.5;fill:none;fill-opacity:1;stroke:#555761;stroke-width:1;stroke-linecap:round;stroke-linejoin:round;stroke-opacity:1"
     d="M 6.5009191,7.354165 16,3.999996 25.499081,7.354165 C 25.499081,20.413493 25.692647,21.373287 16,27.000008 6.3073532,21.373287 6.5009191,20.413493 6.5009191,7.354165 Z"
     id="path8128" /><path
     style="color:#000000;clip-rule:nonzero;display:inline;overflow:visible;visibility:visible;opacity:0.7;isolation:auto;mix-blend-mode:normal;color-interpolation:sRGB;color-interpolation-filters:linearRGB;solid-color:#000000;solid-opacity:1;fill:none;fill-opacity:1;fill-rule:nonzero;stroke:url(#linearGradient4318);stroke-width:1;stroke-linecap:round;stroke-linejoin:round;stroke-miterlimit:4;stroke-dasharray:none;stroke-dashoffset:0;stroke-opacity:1;marker:none;color-rendering:auto;image-rendering:auto;shape-rendering:auto;text-rendering:auto;enable-background:accumulate"
     d="M 4.5,5.2815463 16,1.4999971 27.5,5.2835391 C 27.5,21.239808 27.255895,22.905624 16,29.500008 4.7441054,22.905624 4.5,21.237816 4.5,5.2815463 Z"
     id="path8211" /><path
     d="M 16,5.0430389 7.50016,8.0727136 C 7.499817,14.032762 7.49713,17.315574 8.5051597,19.569263 9.5162891,21.829774 11.616123,23.342009 16,25.921924 c 4.383876,-2.579915 6.48371,-4.09215 7.49484,-6.352661 1.008077,-2.253689 1.005343,-5.536501 1.005,-11.4965494 z"
     id="path4353"
     style="color:#000000;clip-rule:nonzero;display:inline;overflow:visible;visibility:visible;opacity:0.15;isolation:auto;mix-blend-mode:normal;color-interpolation:sRGB;color-interpolation-filters:linearRGB;solid-color:#000000;solid-opacity:1;fill:none;fill-opacity:0;fill-rule:nonzero;stroke:url(#linearGradient4378);stroke-width:1;stroke-linecap:round;stroke-linejoin:miter;stroke-miterlimit:4;stroke-dasharray:none;stroke-dashoffset:0;stroke-opacity:1;marker:none;color-rendering:auto;image-rendering:auto;shape-rendering:auto;text-rendering:auto;enable-background:accumulate" /><g
     id="g2"
     transform="translate(-10.99661,-13.466667)"><g
       id="g3"
       transform="matrix(0.70916737,0,0,0.70916737,7.8514948,8.128609)"><g
         transform="matrix(0.22084203,0,0,0.22080278,28.840066,31.029469)"
         id="g2230"
         style="opacity:0.15;stroke-width:3.34044"><path
           d="m -1.274407,-1.098966 c -1.494,0.02 0.281,0.768 2.232,1.069 0.541,-0.422 1.027,-0.846 1.463,-1.26 -1.213,0.297 -2.449,0.304 -3.695,0.191"
           id="path2206"
           style="fill:#ffffff;stroke-width:3.34044;fill-opacity:1" /><path
           d="m 6.742593,-3.097966 c 0.893,-1.229 1.541,-2.573 1.77,-3.963 -0.201,0.99 -0.736,1.845 -1.244,2.749 -2.793,1.759 -0.264,-1.044 -0.002,-2.111 -3.002,3.783 -0.414,2.268 -0.524,3.325"
           id="path2208"
           style="fill:#ffffff;stroke-width:3.34044;fill-opacity:1" /><path
           d="m 9.705593,-10.801966 c 0.182,-2.691 -0.529,-1.839 -0.768,-0.814 0.278,0.146 0.499,1.898 0.768,0.814"
           id="path2210"
           style="fill:#ffffff;stroke-width:3.34044;fill-opacity:1" /><path
           d="m -6.942407,-47.580966 c 0.798,0.142 1.724,0.252 1.591,0.443 0.876,-0.193 1.073,-0.367 -1.591,-0.443"
           id="path2212"
           style="fill:#ffffff;stroke-width:3.34044;fill-opacity:1" /><path
           d="m -5.350407,-47.137966 -0.561,0.117 0.523,-0.048 0.038,-0.069"
           id="path2214"
           style="fill:#ffffff;stroke-width:3.34044;fill-opacity:1" /><path
           d="m 19.518593,-9.781966 c 0.09,2.416 -0.705,3.59 -1.424,5.666 l -1.293,0.643 c -1.057,2.054 0.105,1.304 -0.652,2.937 -1.652,1.467 -5.006,4.589 -6.08,4.875 -0.785,-0.017 0.531,-0.926 0.703,-1.281 -2.209,1.516 -1.773,2.276 -5.152,3.199 l -0.098,-0.221 c -8.33,3.92 -19.902,-3.847 -19.75,-14.443 -0.088,0.672 -0.253,0.504 -0.437,0.774 -0.43,-5.451 2.518,-10.926 7.49,-13.165 4.863,-2.406 10.564,-1.42 14.045,1.829 -1.912,-2.506 -5.721,-5.163 -10.232,-4.917 -4.421,0.072 -8.558,2.881 -9.938,5.932 -2.264,1.425 -2.528,5.496 -3.514,6.242 -1.329,9.76 2.497,13.975 8.97,18.936 1.016,0.686 0.286,0.791 0.422,1.313 -2.15,-1.006 -4.118,-2.526 -5.738,-4.387 0.86,1.257 1.787,2.479 2.986,3.439 -2.029,-0.685 -4.738,-4.913 -5.527,-5.085 3.495,6.258 14.178,10.975 19.775,8.634 -2.59,0.096 -5.879,0.053 -8.787,-1.022 -1.225,-0.629 -2.884,-1.93 -2.587,-2.173 7.636,2.851 15.522,2.158 22.128,-3.137 1.682,-1.31 3.518,-3.537 4.049,-3.567 -0.799,1.202 0.137,0.578 -0.477,1.639 1.672,-2.701 -0.729,-1.1 1.73,-4.664 l 0.908,1.25 c -0.34,-2.244 2.785,-4.966 2.467,-8.512 0.717,-1.084 0.799,1.168 0.039,3.662 1.055,-2.767 0.279,-3.212 0.549,-5.496 0.291,0.768 0.678,1.583 0.875,2.394 -0.688,-2.675 0.703,-4.503 1.049,-6.058 -0.342,-0.15 -1.061,1.182 -1.227,-1.976 0.025,-1.372 0.383,-0.719 0.52,-1.057 -0.268,-0.155 -0.975,-1.207 -1.404,-3.224 0.309,-0.475 0.832,1.229 1.256,1.298 -0.273,-1.603 -0.742,-2.826 -0.762,-4.057 -1.24,-2.59 -0.439,0.346 -1.443,-1.112 -1.32,-4.114 1.094,-0.955 1.258,-2.823 1.998,2.895 3.137,7.385 3.662,9.244 -0.4,-2.267 -1.045,-4.464 -1.834,-6.589 0.609,0.257 -0.979,-4.663 0.791,-1.405 -1.889,-6.945 -8.078,-13.435 -13.773,-16.479 0.695,0.637 1.574,1.437 1.26,1.563 -2.834,-1.685 -2.336,-1.818 -2.742,-2.53 -2.305,-0.939 -2.459,0.077 -3.984,0.002 -4.35,-2.308 -5.188,-2.063 -9.191,-3.507 l 0.182,0.852 c -2.881,-0.96 -3.357,0.362 -6.47,0.002 -0.189,-0.147 0.998,-0.536 1.976,-0.677 -2.786,0.368 -2.656,-0.55 -5.382,0.101 0.671,-0.471 1.383,-0.784 2.099,-1.184 -2.271,0.138 -5.424,1.322 -4.451,0.244 -3.705,1.654 -10.286,3.975 -13.979,7.438 l -0.116,-0.776 c -1.692,2.031 -7.379,6.066 -7.832,8.699 l -0.453,0.105 c -0.879,1.491 -1.45,3.18 -2.148,4.713 -1.151,1.963 -1.688,0.756 -1.524,1.064 -2.265,4.592 -3.392,8.45 -4.363,11.616 0.692,1.035 0.017,6.232 0.278,10.391 -1.136,20.544 14.418,40.489 31.42,45.093 2.492,0.893 6.197,0.861 9.349,0.949 -3.718,-1.064 -4.198,-0.563 -7.822,-1.826 -2.613,-1.232 -3.185,-2.637 -5.037,-4.244 l 0.733,1.295 c -3.63,-1.285 -2.111,-1.59 -5.065,-2.525 l 0.783,-1.021 c -1.177,-0.09 -3.117,-1.982 -3.647,-3.033 l -1.288,0.051 c -1.546,-1.906 -2.371,-3.283 -2.31,-4.35 l -0.416,0.742 c -0.471,-0.809 -5.691,-7.158 -2.983,-5.68 -0.503,-0.458 -1.172,-0.747 -1.897,-2.066 l 0.551,-0.629 c -1.301,-1.677 -2.398,-3.826 -2.314,-4.542 0.695,0.938 1.177,1.114 1.655,1.275 -3.291,-8.164 -3.476,-0.449 -5.967,-8.31 l 0.526,-0.042 c -0.403,-0.611 -0.65,-1.27 -0.974,-1.919 l 0.23,-2.285 c -2.368,-2.736 -0.662,-11.645 -0.319,-16.53 0.235,-1.986 1.977,-4.101 3.3,-7.418 l -0.806,-0.138 c 1.542,-2.688 8.802,-10.799 12.166,-10.383 1.629,-2.046 -0.324,-0.008 -0.643,-0.522 3.579,-3.703 4.704,-2.616 7.119,-3.283 2.603,-1.545 -2.235,0.604 -1.001,-0.589 4.503,-1.149 3.19,-2.614 9.063,-3.197 0.62,0.352 -1.437,0.544 -1.953,1.001 3.75,-1.836 11.869,-1.417 17.145,1.018 6.117,2.861 12.994,11.314 13.266,19.267 l 0.309,0.083 c -0.156,3.162 0.484,6.819 -0.627,10.177 l 0.751,-1.591"
           id="path2216"
           style="fill:#ffffff;fill-opacity:1;stroke-width:3.34044" /><path
           d="m -17.585407,0.951034 -0.211,1.047 c 0.983,1.335 1.763,2.781 3.016,3.821 -0.902,-1.759 -1.571,-2.486 -2.805,-4.868"
           id="path2218"
           style="fill:#ffffff;stroke-width:3.34044;fill-opacity:1" /><path
           d="m -15.264407,0.861034 c -0.52,-0.576 -0.826,-1.268 -1.172,-1.956 0.33,1.211 1.006,2.252 1.633,3.312 l -0.461,-1.356"
           id="path2220"
           style="fill:#ffffff;stroke-width:3.34044;fill-opacity:1" /><path
           d="m 25.819593,-8.068966 -0.219,0.552 c -0.402,2.858 -1.273,5.686 -2.605,8.309 1.472,-2.767 2.421,-5.794 2.824,-8.861"
           id="path2222"
           style="fill:#ffffff;stroke-width:3.34044;fill-opacity:1" /><path
           d="m -6.645407,-48.297966 c 1.009,-0.369 2.482,-0.203 3.556,-0.446 -1.398,0.117 -2.789,0.187 -4.162,0.362 l 0.606,0.084"
           id="path2224"
           style="fill:#ffffff;stroke-width:3.34044;fill-opacity:1" /><path
           d="m -42.116407,-29.435966 c 0.233,2.154 -1.62,2.991 0.41,1.569 1.09,-2.454 -0.424,-0.677 -0.41,-1.569"
           id="path2226"
           style="fill:#ffffff;stroke-width:3.34044;fill-opacity:1" /><path
           d="m -44.504407,-19.461966 c 0.469,-1.437 0.553,-2.299 0.732,-3.132 -1.293,1.654 -0.596,2.007 -0.732,3.132"
           id="path2228"
           style="fill:#ffffff;stroke-width:3.34044;fill-opacity:1" /></g><g
         transform="matrix(0.22084203,0,0,0.22080278,28.840066,30.762803)"
         id="g3141"
         style="stroke-width:3.34044"><path
           d="m -1.274407,-1.098966 c -1.494,0.02 0.281,0.768 2.232,1.069 0.541,-0.422 1.027,-0.846 1.463,-1.26 -1.213,0.297 -2.449,0.304 -3.695,0.191"
           id="path3022"
           style="fill:#7a0000;stroke-width:3.34044;fill-opacity:1" /><path
           d="m 6.742593,-3.097966 c 0.893,-1.229 1.541,-2.573 1.77,-3.963 -0.201,0.99 -0.736,1.845 -1.244,2.749 -2.793,1.759 -0.264,-1.044 -0.002,-2.111 -3.002,3.783 -0.414,2.268 -0.524,3.325"
           id="path3024"
           style="fill:#7a0000;stroke-width:3.34044;fill-opacity:1" /><path
           d="m 9.705593,-10.801966 c 0.182,-2.691 -0.529,-1.839 -0.768,-0.814 0.278,0.146 0.499,1.898 0.768,0.814"
           id="path3026"
           style="fill:#7a0000;stroke-width:3.34044;fill-opacity:1" /><path
           d="m -6.942407,-47.580966 c 0.798,0.142 1.724,0.252 1.591,0.443 0.876,-0.193 1.073,-0.367 -1.591,-0.443"
           id="path3028"
           style="fill:#7a0000;stroke-width:3.34044;fill-opacity:1" /><path
           d="m -5.350407,-47.137966 -0.561,0.117 0.523,-0.048 0.038,-0.069"
           id="path3030"
           style="fill:#7a0000;stroke-width:3.34044;fill-opacity:1" /><path
           d="m 19.518593,-9.781966 c 0.09,2.416 -0.705,3.59 -1.424,5.666 l -1.293,0.643 c -1.057,2.054 0.105,1.304 -0.652,2.937 -1.652,1.467 -5.006,4.589 -6.08,4.875 -0.785,-0.017 0.531,-0.926 0.703,-1.281 -2.209,1.516 -1.773,2.276 -5.152,3.199 l -0.098,-0.221 c -8.33,3.92 -19.902,-3.847 -19.75,-14.443 -0.088,0.672 -0.253,0.504 -0.437,0.774 -0.43,-5.451 2.518,-10.926 7.49,-13.165 4.863,-2.406 10.564,-1.42 14.045,1.829 -1.912,-2.506 -5.721,-5.163 -10.232,-4.917 -4.421,0.072 -8.558,2.881 -9.938,5.932 -2.264,1.425 -2.528,5.496 -3.514,6.242 -1.329,9.76 2.497,13.975 8.97,18.936 1.016,0.686 0.286,0.791 0.422,1.313 -2.15,-1.006 -4.118,-2.526 -5.738,-4.387 0.86,1.257 1.787,2.479 2.986,3.439 -2.029,-0.685 -4.738,-4.913 -5.527,-5.085 3.495,6.258 14.178,10.975 19.775,8.634 -2.59,0.096 -5.879,0.053 -8.787,-1.022 -1.225,-0.629 -2.884,-1.93 -2.587,-2.173 7.636,2.851 15.522,2.158 22.128,-3.137 1.682,-1.31 3.518,-3.537 4.049,-3.567 -0.799,1.202 0.137,0.578 -0.477,1.639 1.672,-2.701 -0.729,-1.1 1.73,-4.664 l 0.908,1.25 c -0.34,-2.244 2.785,-4.966 2.467,-8.512 0.717,-1.084 0.799,1.168 0.039,3.662 1.055,-2.767 0.279,-3.212 0.549,-5.496 0.291,0.768 0.678,1.583 0.875,2.394 -0.688,-2.675 0.703,-4.503 1.049,-6.058 -0.342,-0.15 -1.061,1.182 -1.227,-1.976 0.025,-1.372 0.383,-0.719 0.52,-1.057 -0.268,-0.155 -0.975,-1.207 -1.404,-3.224 0.309,-0.475 0.832,1.229 1.256,1.298 -0.273,-1.603 -0.742,-2.826 -0.762,-4.057 -1.24,-2.59 -0.439,0.346 -1.443,-1.112 -1.32,-4.114 1.094,-0.955 1.258,-2.823 1.998,2.895 3.137,7.385 3.662,9.244 -0.4,-2.267 -1.045,-4.464 -1.834,-6.589 0.609,0.257 -0.979,-4.663 0.791,-1.405 -1.889,-6.945 -8.078,-13.435 -13.773,-16.479 0.695,0.637 1.574,1.437 1.26,1.563 -2.834,-1.685 -2.336,-1.818 -2.742,-2.53 -2.305,-0.939 -2.459,0.077 -3.984,0.002 -4.35,-2.308 -5.188,-2.063 -9.191,-3.507 l 0.182,0.852 c -2.881,-0.96 -3.357,0.362 -6.47,0.002 -0.189,-0.147 0.998,-0.536 1.976,-0.677 -2.786,0.368 -2.656,-0.55 -5.382,0.101 0.671,-0.471 1.383,-0.784 2.099,-1.184 -2.271,0.138 -5.424,1.322 -4.451,0.244 -3.705,1.654 -10.286,3.975 -13.979,7.438 l -0.116,-0.776 c -1.692,2.031 -7.379,6.066 -7.832,8.699 l -0.453,0.105 c -0.879,1.491 -1.45,3.18 -2.148,4.713 -1.151,1.963 -1.688,0.756 -1.524,1.064 -2.265,4.592 -3.392,8.45 -4.363,11.616 0.692,1.035 0.017,6.232 0.278,10.391 -1.136,20.544 14.418,40.489 31.42,45.093 2.492,0.893 6.197,0.861 9.349,0.949 -3.718,-1.064 -4.198,-0.563 -7.822,-1.826 -2.613,-1.232 -3.185,-2.637 -5.037,-4.244 l 0.733,1.295 c -3.63,-1.285 -2.111,-1.59 -5.065,-2.525 l 0.783,-1.021 c -1.177,-0.09 -3.117,-1.982 -3.647,-3.033 l -1.288,0.051 c -1.546,-1.906 -2.371,-3.283 -2.31,-4.35 l -0.416,0.742 c -0.471,-0.809 -5.691,-7.158 -2.983,-5.68 -0.503,-0.458 -1.172,-0.747 -1.897,-2.066 l 0.551,-0.629 c -1.301,-1.677 -2.398,-3.826 -2.314,-4.542 0.695,0.938 1.177,1.114 1.655,1.275 -3.291,-8.164 -3.476,-0.449 -5.967,-8.31 l 0.526,-0.042 c -0.403,-0.611 -0.65,-1.27 -0.974,-1.919 l 0.23,-2.285 c -2.368,-2.736 -0.662,-11.645 -0.319,-16.53 0.235,-1.986 1.977,-4.101 3.3,-7.418 l -0.806,-0.138 c 1.542,-2.688 8.802,-10.799 12.166,-10.383 1.629,-2.046 -0.324,-0.008 -0.643,-0.522 3.579,-3.703 4.704,-2.616 7.119,-3.283 2.603,-1.545 -2.235,0.604 -1.001,-0.589 4.503,-1.149 3.19,-2.614 9.063,-3.197 0.62,0.352 -1.437,0.544 -1.953,1.001 3.75,-1.836 11.869,-1.417 17.145,1.018 6.117,2.861 12.994,11.314 13.266,19.267 l 0.309,0.083 c -0.156,3.162 0.484,6.819 -0.627,10.177 l 0.751,-1.591"
           id="path3032"
           style="fill:#7a0000;fill-opacity:1;stroke-width:3.34044" /><path
           d="m -17.585407,0.951034 -0.211,1.047 c 0.983,1.335 1.763,2.781 3.016,3.821 -0.902,-1.759 -1.571,-2.486 -2.805,-4.868"
           id="path3034"
           style="fill:#7a0000;stroke-width:3.34044;fill-opacity:1" /><path
           d="m -15.264407,0.861034 c -0.52,-0.576 -0.826,-1.268 -1.172,-1.956 0.33,1.211 1.006,2.252 1.633,3.312 l -0.461,-1.356"
           id="path3036"
           style="fill:#7a0000;stroke-width:3.34044;fill-opacity:1" /><path
           d="m 25.819593,-8.068966 -0.219,0.552 c -0.402,2.858 -1.273,5.686 -2.605,8.309 1.472,-2.767 2.421,-5.794 2.824,-8.861"
           id="path3038"
           style="fill:#7a0000;stroke-width:3.34044;fill-opacity:1" /><path
           d="m -6.645407,-48.297966 c 1.009,-0.369 2.482,-0.203 3.556,-0.446 -1.398,0.117 -2.789,0.187 -4.162,0.362 l 0.606,0.084"
           id="path3040"
           style="fill:#7a0000;stroke-width:3.34044;fill-opacity:1" /><path
           d="m -42.116407,-29.435966 c 0.233,2.154 -1.62,2.991 0.41,1.569 1.09,-2.454 -0.424,-0.677 -0.41,-1.569"
           id="path3042"
           style="fill:#7a0000;stroke-width:3.34044;fill-opacity:1" /><path
           d="m -44.504407,-19.461966 c 0.469,-1.437 0.553,-2.299 0.732,-3.132 -1.293,1.654 -0.596,2.007 -0.732,3.132"
           id="path3044"
           style="fill:#7a0000;stroke-width:3.34044;fill-opacity:1" /></g></g></g></svg>
